<?xml version="1.0" encoding="utf-8"?>
<!-- Generator: Adobe Illustrator 27.0.1, SVG Export Plug-In . SVG Version: 6.00 Build 0)  -->
<!DOCTYPE svg PUBLIC "-//W3C//DTD SVG 1.1//EN" "http://www.w3.org/Graphics/SVG/1.1/DTD/svg11.dtd" [
<!ENTITY ns_extend "http://ns.adobe.com/Extensibility/1.0/">
<!ENTITY ns_ai "http://ns.adobe.com/AdobeIllustrator/10.0/">
<!ENTITY ns_graphs "http://ns.adobe.com/Graphs/1.0/">
<!ENTITY ns_vars "http://ns.adobe.com/Variables/1.0/">
<!ENTITY ns_imrep "http://ns.adobe.com/ImageReplacement/1.0/">
<!ENTITY ns_sfw "http://ns.adobe.com/SaveForWeb/1.0/">
<!ENTITY ns_custom "http://ns.adobe.com/GenericCustomNamespace/1.0/">
<!ENTITY ns_adobe_xpath "http://ns.adobe.com/XPath/1.0/">
]>
<svg version="1.1" id="Logo" xmlns:x="&ns_extend;" xmlns:i="&ns_ai;" xmlns:graph="&ns_graphs;"
	 xmlns="http://www.w3.org/2000/svg" xmlns:xlink="http://www.w3.org/1999/xlink" x="0px" y="0px" viewBox="0 0 5800 1400"
	 style="enable-background:new 0 0 5800 1400;" xml:space="preserve">
	<style type="text/css">
	.st0{fill:url(#SVGID_1_);}
	.st1{fill:url(#SVGID_00000129921741083446906320000018179972964299509940_);}
	.st2{fill:#F5FF80;}
	.st3{fill-rule:evenodd;clip-rule:evenodd;fill:#FFFFFF;}
	.st4{fill:#FFFFFF;}
</style>
	<g>
		<g>
			<linearGradient id="SVGID_1_" gradientUnits="userSpaceOnUse" x1="599.2461" y1="905.8287" x2="495.0723" y2="904.2792" gradientTransform="matrix(1 0 0 1 0 -373.06)">
				<stop  offset="0" style="stop-color:#F5FF80;stop-opacity:0"/>
				<stop  offset="1" style="stop-color:#F5FF80"/>
			</linearGradient>
			<path class="st0" d="M597.7,635.9l-0.1-106.4c0-6.3-2.5-12.4-7-16.9l-92.2-92.3l-64.3,70.9l150.2,150.2
				C589.3,646.3,597.7,642.8,597.7,635.9L597.7,635.9z"/>
			<linearGradient id="SVGID_00000155137579583717180040000006777367133285809282_" gradientUnits="userSpaceOnUse" x1="398.9542" y1="1240.8534" x2="269.145" y2="1240.8534" gradientTransform="matrix(1 0 0 1 0 -373.06)">
				<stop  offset="0" style="stop-color:#F5FF80;stop-opacity:0"/>
				<stop  offset="0.96" style="stop-color:#F5FF80"/>
			</linearGradient>
			<path style="fill:url(#SVGID_00000155137579583717180040000006777367133285809282_);" d="M394.1,892.5L213,711.8l-64.7,70.3
				l239.6,239.3c4.9,4.9,13.3,1.4,13.3-5.5V909.4C401.1,903.1,398.6,897,394.1,892.5L394.1,892.5z"/>
			<path class="st2" d="M635.4,58.4c-325,22.5-584.8,291.5-597,617.1C26.4,993.4,245,1262.3,540.1,1328.3L146.7,934.8
				c-5.6-5.6-8.8-13.3-8.8-21.3l0.3-127.1c0-5.3,6.4-8,10.2-4.2l64.7-70.3c-4.1-4.1-4.1-10.7,0-14.7l62.3-62.1
				c4.1-4.1,10.6-4,14.7,0l210.3,210.3c8.9,8.9,14,21.1,14,33.7v219.5c0,31.6,12.6,61.9,34.9,84.3l160.4,160.4
				c40.7-1.7,80.4-7.3,118.8-16.3l-203.2-203.2c-10-10-15.7-23.7-15.7-37.9V873.7c0-34.8-13.8-68.1-38.4-92.7L357.7,567.5
				c-4.1-4.1-4.1-10.7,0-14.7l61.8-61.6c4.1-4.1,10.6-4,14.7,0l0,0l64.3-70.9c-1.2-1.4-2.3-2.9-3.5-4.4
				c-18.4-24.8-29.5-65.6-16.5-111.7c7.8-29.5,24-51.7,53.8-78.8c2.6-2.4,6.8-2.5,9.4-0.2l77.3,66.9l15.2,13.2
				c5.8,5.1,12.8,8.7,20.4,10.5L895.5,373c2.8,0.7,5.4,2.1,7.4,4.1L1150.5,624c4.3,4.1,6.8,9.9,6.8,15.9v52.5c0,8.1-2,16-5.9,23.1
				l-122.5,223.1c-5.3,9.8-17.3,13.9-27.5,9.4l-56.5-24.6H738.6c-13.3,0-24,10.7-24,24v92c0,12.7,5,24.8,13.9,33.8l213.7,215.3
				c225-100.2,382-325.9,382-588.2C1324.2,329.8,1011.2,32.4,635.4,58.4L635.4,58.4z"/>
		</g>
		<g>
			<path class="st3" d="M2311.7,489.9c13.3,12.7,29.3,19.1,48,19.1c18.7,0,34.4-6.4,47.2-19.1c12.8-13.3,19.2-29.4,19.2-48.5
				c0-19.1-6.4-34-19.2-46.2c-12.8-12.7-28.5-19.1-47.2-19.1c-18.7,0-34.6,6.4-48,19.1c-12.8,12.2-19.2,27.6-19.2,46.2
				C2292.5,459.9,2298.9,476.7,2311.7,489.9z"/>
			<path class="st4" d="M2415.4,562.2h-112.2v446.5h112.2V562.2z"/>
			<path class="st3" d="M1932.8,1008.7h115.8V495h179.8V392.1H1753V495h179.8V1008.7z"/>
			<path class="st3" d="M2506.2,1008.7V565.8h92.4l8.4,59.3c13.4-21.7,33-39.3,58.8-52.7c25.8-13.9,54.9-20.9,87.4-20.9
				c32.5,0,58.5,7,81.5,20.9c23,13.9,40.6,33.7,52.9,59.3c12.9-23.4,32.5-42.6,58.8-57.7c26.9-15,57.4-22.6,91.6-22.6
				c45.9,0,82.6,15,110,45.1c28,29.5,42,69.1,42,118.7v293.3h-114.2V720.4c0-21.7-6.4-39-19.3-51.8c-12.3-13.4-29.1-20.1-50.4-20.1
				c-29.7,0-54,8.6-73.1,25.9c-18.5,17.3-27.7,39.3-27.7,66v268.3H2791V720.4c0-21.7-6.4-39-19.3-51.8
				c-12.3-13.4-29.1-20.1-50.4-20.1c-29.7,0-53.8,8.6-72.2,25.9c-18.5,17.3-27.7,39.3-27.7,66v268.3L2506.2,1008.7L2506.2,1008.7z"
				/>
			<path class="st3" d="M3692.2,784.2c-0.6-47.1-10.1-88.1-28.6-123c-18.5-35.4-44-62.6-76.6-81.4c-32.5-18.8-70.1-28.2-112.7-28.2
				c-42.6,0-81.9,10-116.1,29.9c-34.2,19.4-61.1,47.1-80.8,83.1c-19.1,35.4-28.6,76.4-28.6,123c0,46.5,9.8,85,29.4,120.5
				c19.6,34.9,47.1,62.3,82.4,82.3c35.9,19.4,76.6,29.1,122,29.1c53.3,0,98.2-13.3,134.6-39.9c26-19.4,45.9-44.3,59.6-74.6
				L3574,877.6c-7.3,13.7-17.6,24.6-30.8,32.9c-16.3,10-36.2,14.9-59.7,14.9c-33.1,0-60.6-10.5-82.4-31.6
				c-21.9-21-35.1-48.7-39.6-83.1h330.7V784.2L3692.2,784.2z M3366.6,735.2c7.3-27.7,20.5-49.3,39.5-64.8
				c19.1-16.1,41.8-24.1,68.1-24.1c26.4,0,47.4,7.8,64.8,23.3c17.4,15.5,29.2,37.4,35.3,65.6H3366.6L3366.6,735.2z"/>
			<path class="st3" d="M3934.1,1019.3c-64.7,0-114.5-13.3-149.4-39.9c-24.2-18.4-40.7-42.5-49.5-72.1l105.2-27.7
				c3.8,13.9,11.4,25.1,22.8,33.4c15.8,10.5,36.6,15.8,62.5,15.8c21.9,0,38.8-3.9,50.6-11.6c11.8-8.3,17.7-19.7,17.7-34.1
				c0-9.4-2.5-16.6-7.6-21.6c-4.5-5.5-9.8-9.4-16-11.6c-6.2-2.8-18.6-7.2-37.1-13.3l-56.5-18.3c-30.4-9.4-55.7-19.1-76-29.1
				c-19.7-10.5-35.7-24.1-48.1-40.7c-11.8-17.2-17.7-38.5-17.7-64c0-40.4,15.2-72.6,45.6-96.4c30.4-24.4,73.2-36.6,128.3-36.6
				c55.2,0,97.6,13.6,130.8,40.7c25.6,20.2,43.1,47.1,52.6,80.6l-100.9,26.6c-3.3-17.9-11.4-31.5-24.3-40.8
				c-14.6-11.1-34-16.6-58.3-16.6c-19.1,0-34,3.6-44.7,10.8c-10.7,7.2-16,17.2-16,29.9c0,8.9,2.8,16.3,8.4,22.4
				c6.2,5.5,12.7,9.7,19.4,12.5c6.8,2.8,18.6,6.9,35.5,12.5l51.5,17.5c34.9,11.1,62.5,22.2,82.7,33.2c20.3,10.5,35.7,24.1,46.4,40.7
				c11.3,16.1,16.9,37.1,16.9,63.1c0,42.1-15.5,75.1-46.4,98.9C4031.5,1007.4,3988.7,1019.3,3934.1,1019.3"/>
			<path class="st3" d="M4249.9,989.4c35.2,19.9,76.6,29.9,124.1,29.9c59.8,0,109-16.9,147.6-50.7c24-21,41.6-46.6,52.9-76.6
				l-106.9-28.4c-6,14.1-14.6,26.1-25.6,36c-17.9,16.1-40.5,24.1-67.9,24.1c-35.2,0-63.7-12.7-85.5-38.2
				c-21.8-25.5-32.7-59.8-32.7-103c0-43.2,10.6-74.5,31.9-98.9c21.2-24.9,49.2-37.4,83.9-37.4c27.9,0,51.4,8.3,70.4,24.9
				c13.4,11.3,23.1,25.4,29,42.3l108-28.7c-5-15.8-12.1-30.6-21.3-44.4c-18.4-28.2-43.6-50.1-75.5-65.6
				c-31.9-15.5-68.5-23.3-109.9-23.3c-44.7,0-84.7,9.4-119.9,28.2c-34.7,18.8-62.1,45.7-82.2,80.6c-19.6,34.9-29.4,75.6-29.4,122.1
				c0,46.5,9.2,86.1,27.7,122.1C4187.6,940.7,4214.7,968.9,4249.9,989.4"/>
			<path class="st3" d="M4972.5,565.7l-10.1,66.5c-12.9-24.9-33.1-44.6-60.6-59c-26.9-14.4-57.5-21.6-91.7-21.6
				c-39.3,0-74.6,10-106,29.9c-30.9,19.4-55,46.8-72.4,82.3c-17.4,34.9-26.1,74.8-26.1,119.6c0,44.9,9,87,26.9,123
				c17.9,35.5,42.6,63.1,74,83.1c32,19.9,67.9,29.9,107.7,29.9c30.3,0,57.2-5.8,80.8-17.5c23.6-11.6,42.1-27.7,55.5-48.2v52.3h114.4
				V565.7L4972.5,565.7L4972.5,565.7z M4918.7,886.4c-20.8,26.6-48.2,39.9-82.5,39.9c-34.2,0-61.1-13-82.5-39
				c-21.3-26.6-32-60.9-32-103c0-42.1,10.7-74.2,32-99.7c21.3-26,49.1-39.1,83.3-39.1s60.9,12.7,81.6,38.2
				c21.3,25.5,32,58.7,32,99.7C4950.7,824.3,4940,859.8,4918.7,886.4"/>
			<path class="st4" d="M5257.4,392.1h-112.2v616.6h112.2V392.1z"/>
			<path class="st3" d="M5762.2,784.2c-0.6-47.1-10.1-88.1-28.6-123c-18.5-35.4-44-62.6-76.6-81.4c-32.5-18.8-70.1-28.2-112.7-28.2
				c-42.6,0-81.9,10-116.1,29.9c-34.2,19.4-61.1,47.1-80.8,83.1c-19.1,35.4-28.6,76.4-28.6,123c0,46.5,9.8,85,29.4,120.5
				c19.6,34.9,47.1,62.3,82.4,82.3c35.9,19.4,76.6,29.1,122,29.1c53.3,0,98.2-13.3,134.6-39.9c26-19.4,45.9-44.3,59.6-74.6
				L5644,877.6c-7.3,13.7-17.6,24.6-30.8,32.9c-16.3,10-36.2,14.9-59.7,14.9c-33.1,0-60.6-10.5-82.5-31.6
				c-21.9-21-35.1-48.7-39.5-83.1h330.7V784.2L5762.2,784.2z M5436.6,735.2c7.3-27.7,20.5-49.3,39.6-64.8
				c19.1-16.1,41.8-24.1,68.1-24.1c26.4,0,47.4,7.8,64.8,23.3c17.4,15.5,29.2,37.4,35.3,65.6H5436.6L5436.6,735.2z"/>
		</g>
	</g>
</svg>