<svg version="1.1" id="Layer_1" xmlns:x="ns_extend;" xmlns:i="ns_ai;" xmlns:graph="ns_graphs;" xmlns="http://www.w3.org/2000/svg" xmlns:xlink="http://www.w3.org/1999/xlink" x="0px" y="0px" viewBox="0 0 417.5 56" style="enable-background:new 0 0 417.5 56;" xml:space="preserve">
 <style type="text/css">
  .st0{fill:#FFFFFF;}
	.st1{fill:#FF5F3B;}
 </style>
 <metadata>
  <sfw xmlns="ns_sfw;">
   <slices>
   </slices>
   <sliceSourceBounds bottomLeftOrigin="true" height="56" width="417.5" x="-118.9" y="-213">
   </sliceSourceBounds>
  </sfw>
 </metadata>
 <g id="Yugabyte-Logo-Dark_BG-RGB_00000167373402416010803990000005445657258390182841_">
  <g id="Yugabyte-Wordmark-Dark_BG-RGB">
   <path class="st0" d="M410.2,19.5c2.7-1.4,5.2-4.4,5.2-8.5c0-7.1-5.6-11-13.4-11h-16.7v42.9h17.3c9,0,15-4.7,15-12.7
			C417.5,24.5,414.2,21,410.2,19.5L410.2,19.5z M393.3,6.5h7.9c4.4,0,6.6,1.9,6.6,5.2s-2.2,5.1-6.5,5.1h-8L393.3,6.5L393.3,6.5z
			 M401.6,35.9h-8.3V23.6h8.3c5.5,0,8.1,2.3,8.1,6.2C409.8,33.7,407.1,35.9,401.6,35.9z">
   </path>
   <path class="st0" d="M356.8,0h-13.9v42.9h13.9c12,0,22.1-7.1,22.1-21.5C378.9,7.1,368.8,0,356.8,0L356.8,0z M356.3,35.9h-5.2V7
			h5.2c7.4,0,14.4,3.8,14.4,14.5S363.6,35.9,356.3,35.9L356.3,35.9z">
   </path>
   <path class="st0" d="M329.8,32.6c-0.8,2.9-3.3,4.5-7.3,4.5c-4.7,0-7.9-3.1-8.5-8.1h22.8c0.1-0.8,0.2-1.7,0.2-2.5
			c0-7.5-4.7-15-15.1-15c-10.4,0-15.2,7.7-15.2,15.9s5.7,16.1,15.8,16.1c7.6,0,13.4-4.2,14.6-10.8L329.8,32.6L329.8,32.6z
			 M321.9,17.2c4.5,0,7.1,2.9,7.5,6.9h-15.3C315,19.4,317.7,17.2,321.9,17.2L321.9,17.2z">
   </path>
   <path class="st0" d="M304.2,18.3V12h-8.5V2.6h-7.5v9.3H282v6.4h6.1v13.8c0,6.9,4.4,10.8,11.2,10.8h4.9v-6.4h-4.1
			c-2.8,0-4.4-1.6-4.4-4.7V18.3L304.2,18.3L304.2,18.3z">
   </path>
   <path class="st0" d="M272.6,12l-7.1,21.3L258.3,12h-7.6l11.3,31l-4.3,12.5h7.1l4.8-14l10.8-29.5L272.6,12L272.6,12z">
   </path>
   <path class="st0" d="M235.2,11.5c-4,0-7.4,1.8-9.1,4.3V0h-7.5v42.9h7.5v-3.8c1.8,2.7,5.2,4.3,8.9,4.3c9.3,0,14.8-6.5,14.8-16
			C249.8,17.9,244.3,11.5,235.2,11.5L235.2,11.5z M233.9,37c-5,0-8.3-3.8-8.3-9.5s3.3-9.4,8.3-9.4s8.3,3.7,8.3,9.4
			C242.2,33.1,238.9,37,233.9,37z">
   </path>
   <path class="st0" d="M198.4,11.5c-8,0-13.2,4.8-13.6,11h6.8c0.1-2.8,2.5-5.3,6.6-5.3c4,0,6.3,2.2,6.3,5.2c0,1.2-0.7,2.1-2.3,2.1
			h-5.7c-7,0-11.7,3.7-11.7,9.8c0,5.3,4.2,9.2,10.3,9.2c4.5,0,8-2.1,9.3-5.1v4.6h7.5V23C211.8,16.1,206.2,11.5,198.4,11.5
			L198.4,11.5z M204.4,29.9c0,4.6-2.7,7.9-7.5,7.9c-2.8,0-4.8-1.6-4.8-4c0-2.6,2.2-4.4,5.3-4.4h7V29.9z">
   </path>
   <path class="st0" d="M134.4,12v17c0,4.5-3,7.8-7.3,7.8s-6.5-2.9-6.5-7.1V12h-7.5v19.2c0,7.2,4.3,12.3,11.5,12.3
			c4.4,0,7.9-1.9,9.7-5.3v4.8h7.5V12H134.4z">
   </path>
   <path class="st0" d="M101.5,12l-7.1,21.3L87.2,12h-7.6l11.3,31l-4.3,12.5h7.1l4.8-14l10.8-29.5L101.5,12L101.5,12z">
   </path>
   <path class="st0" d="M171,12v3.5c-1.8-2.4-5.1-4-9-4c-9.2,0-14.6,6.6-14.6,16s5.4,16,14.7,16c4.5,0,7.5-1.6,9-3.9V40
			c0,5.8-1.9,9.7-7.9,9.7c-3.8,0-5.8-1.6-7.1-4.6h-7.5c1.7,7.5,6.8,10.9,14.6,10.9c9.8,0,15.1-5.9,15.1-16l0.3-28L171,12L171,12z
			 M163.2,37c-5,0-8.3-3.8-8.3-9.5s3.3-9.4,8.3-9.4c5,0,8.4,3.7,8.4,9.4C171.6,33.1,168.3,37,163.2,37z">
   </path>
  </g>
  <g id="Yugabyte-Logomark-Dark_BG-RGB">
   <path class="st1" d="M16.4,0c1.4,0,2.1,0,2.6,0.3c0.5,0.2,0.8,0.6,1.1,1.1c0.3,0.5,0.3,1.2,0.3,2.6v17.6c0,2.1,0,3.1-0.4,3.8
			c-0.4,0.6-1,0.9-1.6,1.1c-0.8,0.1-1.7-0.3-3.6-1.2l-4.9-2.3c-3.6-1.7-5.3-2.5-6.6-3.8c-1.2-1.1-2-2.5-2.6-4C0,13.4,0,11.4,0,7.5V4
			c0-1.4,0-2.1,0.3-2.6c0.2-0.5,0.6-0.8,1.1-1.1C1.9,0,2.6,0,4,0H16.4z">
   </path>
   <path class="st1" d="M57.3,0c1.4,0,2.1,0,2.6,0.3c0.5,0.2,0.8,0.6,1.1,1.1c0.3,0.5,0.3,1.2,0.3,2.6v3.5c0,3.9,0,5.9-0.6,7.6
			c-0.5,1.5-1.4,2.9-2.6,4c-1.3,1.3-3.1,2.1-6.6,3.8l-10.6,4.9V4c0-1.4,0-2.1,0.3-2.6c0.2-0.5,0.6-0.8,1.1-1.1C42.8,0,43.5,0,44.9,0
			H57.3z">
   </path>
   <path class="st1" d="M40.9,27.9v23.9c0,1.4,0,2.1-0.3,2.6c-0.2,0.5-0.6,0.8-1.1,1.1c-0.5,0.3-1.2,0.3-2.6,0.3H24.4
			c-1.4,0-2.1,0-2.6-0.3c-0.5-0.2-0.8-0.6-1.1-1.1c-0.3-0.5-0.3-1.2-0.3-2.6v-3.5c0-3.9,0-5.9,0.6-7.6c0.5-1.5,1.4-2.9,2.6-4
			c1.3-1.3,3.1-2.1,6.6-3.8L40.9,27.9z">
   </path>
  </g>
 </g>
</svg>