<?xml version="1.0" encoding="utf-8"?>
<svg viewBox="629.6785 565.0327 97.7725 79.0474" width="97.772px" height="79.047px" xmlns="http://www.w3.org/2000/svg">
	<g transform="matrix(0.03763499855995178, 0, 0, 0.03763499855995178, 642.8710327148438, 559.5604248046875)" style="">
		<linearGradient id="a" gradientUnits="userSpaceOnUse" x1="-2901.952" y1="923.573" x2="-2061.249" y2="1420.331" gradientTransform="matrix(.1234 0 0 -.1234 1158.33 1550.273)">
			<stop offset="0" stop-color="#909ca9"/>
			<stop offset="1" stop-color="#ededee"/>
		</linearGradient>
		<path fill="url(#a)" d="M1410.773 814.195l-286.9 93.683-249.599 110.161-69.829 18.435c-17.784 16.916-36.431 34.049-56.599 51.397-22.119 19.082-42.72 36.433-58.553 49.008-17.564 13.88-43.587 39.902-56.814 56.38-19.735 24.721-35.348 50.96-42.071 71.13-11.928 36.433-6.07 73.297 16.916 107.346 29.492 43.369 88.261 87.606 156.785 117.749 34.916 15.4 93.683 35.132 137.92 46.19 73.512 18.651 215.771 38.819 294.054 41.857 15.828.65 37.082.65 37.947 0 1.737-1.088 13.881-24.289 27.979-53.129 48.142-98.238 82.838-190.402 101.703-269.119 11.276-47.706 20.166-111.246 26.019-186.492 1.521-21.036 2.169-91.514.868-115.37-1.953-39.033-5.423-70.692-10.84-101.703-.868-4.555-1.088-8.676-.652-8.892.865-.65 3.467-1.517 38.815-11.712l-7.153-16.912v-.005h.004zm-65.49 38.386c2.602 0 9.539 66.573 11.273 108.646.436 8.89.216 14.745-.216 14.745-1.733 0-36.649-20.599-61.583-36.212-21.687-13.663-62.888-40.988-69.393-46.192-2.173-1.517-1.957-1.733 15.828-7.807 30.14-10.194 101.706-33.18 104.091-33.18zm-146.161 48.143c1.953 0 6.937 2.816 18.865 10.191 44.671 27.974 105.393 61.805 131.415 73.083 8.022 3.469 8.887 2.166-9.542 14.746-39.468 26.889-88.697 53.344-148.983 80.018-10.624 4.771-19.514 8.456-19.73 8.456-.432 0 .865-5.418 2.598-11.925 14.53-54.001 22.772-108.647 23.208-152.452.216-21.687.216-21.687 2.169-22.334-.436.217-.22.217 0 .217zm-30.142 11.492c1.297 1.299.432 49.877-1.304 63.104-3.903 31.662-9.975 61.153-19.947 94.335-2.386 8.018-4.558 14.745-4.987 15.177-.872 1.083-30.581-27.975-40.339-39.251-16.916-19.518-30.141-39.035-39.9-58.117-4.988-9.759-12.793-28.84-12.144-29.492 3.469-2.385 117.753-46.622 118.621-45.756zm-141.826 55.731c.216 0 .432 0 .652.216.432.434 1.953 3.905 3.254 7.807 6.937 18.867 22.548 46.624 35.997 64.407 14.746 19.518 34.048 40.334 50.091 53.996 5.207 4.337 9.975 8.456 10.624 9.108 1.304 1.302 1.737 1.083-33.612 14.53-40.981 15.613-85.656 31.226-136.835 47.706a6825.474 6825.474 0 0 0-36.643 11.928c-1.955.652-1.303-.434 4.335-9.323 25.371-39.686 63.97-117.536 85.657-172.618 3.687-9.542 7.373-19.082 8.025-21.251.868-3.038 1.95-4.121 4.768-5.64 1.518-.43 3.038-.866 3.687-.866zm-43.367 17.999c.649.436-10.411 23.637-21.254 44.889-21.036 40.985-44.022 81.323-74.815 130.331-5.204 8.456-10.19 16.265-10.842 17.132-1.083 1.519-1.519 1.083-4.988-5.638-7.373-14.53-13.447-33.181-16.699-50.313-3.254-16.916-2.602-46.406 1.086-64.621 2.816-13.444 2.602-13.227 9.107-16.481 27.757-14.095 117.537-56.166 118.405-55.299zm374.073 15.182v9.107c0 48.359-5.204 114.716-12.797 163.077-1.301 8.456-2.389 15.393-2.602 15.613 0 0-6.288-1.733-13.661-3.905-32.527-10.193-67.875-25.156-99.754-42.718-21.038-11.494-51.612-30.363-50.743-31.231.213-.215 9.323-4.986 19.947-10.625 42.509-22.118 83.274-45.972 118.622-69.609 13.229-8.892 33.176-23.202 37.518-27.107l3.47-2.602zm-537.802 64.185c.867 0 .65 1.735-.651 9.542-.868 5.64-1.951 16.049-2.382 23.202-1.739 31.662 3.469 55.084 19.082 87.177 4.337 8.892 7.809 16.265 7.589 16.48-1.519 1.303-145.074 43.375-190.183 55.734-13.444 3.685-25.152 6.939-26.024 7.153-1.515.436-1.733.22-1.083-3.47 4.987-31.875 29.276-73.512 63.104-108.644 22.554-23.419 40.554-37.08 71.347-54.648 22.119-12.575 56.165-31.439 58.767-32.309.002-.217.218-.217.434-.217zm338.295 60.503c.216-.216 5.42 2.605 11.708 6.29 46.408 26.891 111.03 51.83 166.108 64.623l4.991 1.086-6.941 3.899c-28.84 16.049-123.606 55.515-220.538 91.732-14.098 5.202-27.975 10.409-30.581 11.492-2.602 1.083-4.988 1.735-4.988 1.519 0-.22 3.906-7.809 8.89-17.132 27.107-50.744 54.433-112.547 68.311-155.485 1.739-4.12 2.82-7.805 3.04-8.024zm-34.48 11.278c.22.221-1.517 4.771-3.687 9.975-18.865 45.756-43.59 95.636-75.249 151.583-8.022 14.314-14.746 25.808-14.966 25.808-.213 0-6.721-3.906-14.527-8.676-45.976-28.192-86.743-62.888-113.414-96.501l-3.905-4.771 19.732-5.422c70.696-19.298 130.762-40.116 190.4-65.704 8.459-3.471 15.4-6.292 15.616-6.292zm214.253 74.815s.217.217 0 0c.216 4.988-10.844 49.661-19.953 81.969-7.589 27.107-14.098 48.361-26.022 85.874-5.204 16.485-9.755 30.143-9.975 30.143-.216 0-1.517-.216-2.818-.647-64.405-11.714-122.089-27.977-176.303-49.661-15.182-6.074-36.866-15.833-38.167-16.916-.432-.438 12.58-6.506 29.06-13.663 98.669-43.154 201.024-92.164 236.153-113.196 4.119-2.603 7.373-3.903 8.025-3.903zm-494.646 16.916c.434.432-27.107 40.118-65.709 94.114-13.444 18.867-29.057 40.985-34.911 49.225-5.856 8.241-14.746 21.253-19.734 29.06l-9.112 14.096-9.759-8.24c-11.494-9.544-31.442-29.927-40.333-41.204-18.651-23.201-31.226-47.706-36.214-70.04-2.386-10.411-2.386-15.618-.22-16.265 3.252-.867 61.153-14.53 115.37-27.11 30.143-6.937 65.054-15.177 77.632-18.213 12.579-3.041 22.774-5.423 22.99-5.423zm27.756 10.626l6.937 7.806c31.231 34.914 63.108 60.724 101.708 83.272 6.941 3.906 12.144 7.373 11.708 7.594-1.514 1.083-134.016 48.136-195.385 69.389-34.478 12.143-62.888 21.901-63.102 21.901-.216 0-2.169-1.299-4.341-2.818l-3.901-2.82 6.288-9.106c20.383-29.493 45.976-61.803 101.707-129.028l38.381-46.19zm173.053 123.822c.213-.215 9.755 3.252 21.464 7.594 28.195 10.624 50.527 17.345 80.456 24.936 36.866 9.326 90.211 18.434 121.657 21.035 4.771.432 7.373.868 6.505 1.519-1.521.868-33.395 11.494-56.816 18.867-37.302 11.708-151.149 45.32-243.962 71.995-17.132 4.987-31.879 9.108-32.746 9.323-2.166.436-9.325-1.519-9.325-2.386 0-.431 5.204-7.153 11.494-14.527 31.225-37.3 62.238-78.935 88.044-118.403 7.154-10.846 13.229-19.736 13.229-19.953zm-38.17 1.087c.216.216-15.179 24.936-42.066 67.439-11.496 17.999-24.291 38.383-28.846 45.54-4.337 6.939-10.842 17.784-14.527 23.854l-6.29 11.061-3.252-.868c-7.809-2.169-62.672-21.471-77.202-27.325-18-7.157-36.649-15.829-50.529-23.202-17.346-9.326-39.03-23.206-37.297-23.637.433-.216 30.143-8.243 65.922-17.999 94.984-25.809 147.678-40.77 182.161-51.612 6.29-1.952 11.71-3.471 11.926-3.251zm269.985 63.318h.216c.868 2.171-34.26 99.755-47.06 130.547-2.815 6.939-3.896 8.677-5.417 8.456-3.687-.213-54.646-7.37-85.66-11.925-53.994-8.24-144.641-24.073-167.409-29.275l-5.204-1.083 32.307-7.378c69.396-15.613 102.791-24.069 136.619-34.478 42.722-13.011 85.011-29.276 127.729-49.225 6.722-3.037 12.361-5.422 13.879-5.639z"/>
		<linearGradient id="b" gradientUnits="userSpaceOnUse" x1="-2882.7" y1="10288.81" x2="-2206.249" y2="10288.81" gradientTransform="matrix(.1234 0 0 -.1234 1158.33 1550.273)">
			<stop offset="0" stop-color="#939fab"/>
			<stop offset="1" stop-color="#dcdee1"/>
		</linearGradient>
		<path fill="url(#b)" d="M1114.983 145.414c-4.771-.647-81.757 27.11-131.415 47.275-67.01 27.327-119.052 53.351-151.148 75.899-11.925 8.461-26.891 23.422-29.273 29.276-.867 2.169-1.303 4.771-1.303 7.373l29.06 27.541 69.175 22.119 164.594 29.493 188.228 32.312 1.953-16.264c-.649 0-1.085-.216-1.73-.216l-24.728-3.905-4.984-8.89c-25.59-45.107-53.781-101.056-70.261-138.789-12.793-29.276-24.938-63.102-31.662-87.391-3.687-14.746-4.119-15.613-6.501-15.829v-.005h-.005zm-3.474 11.063h.223c.213.214 1.081 6.29 1.95 13.442 3.683 30.364 10.411 59.635 21.035 91.297 8.022 23.855 8.022 22.555-1.301 19.734-22.119-6.07-121.221-23.202-193-33.177-11.494-1.519-21.253-3.036-21.253-3.252-.867-.867 51.827-28.41 75.031-39.25 29.709-13.665 111.246-47.711 117.315-48.794zm-209.047 97.15l8.461 2.816c45.97 15.616 161.551 37.736 225.31 42.94 7.154.651 13.229 1.303 13.442 1.303.216.216-5.852 3.469-13.661 7.154-30.79 15.397-64.621 34.264-88.042 48.794-6.937 4.335-13.229 7.807-14.094 7.807-.868 0-5.42-.868-10.191-1.519l-8.674-1.303-21.683-21.253c-38.167-37.08-68.094-65.704-79.588-76.549l-11.28-10.19zm-8.671 6.721l30.576 38.168c16.696 21.035 33.611 41.635 37.301 46.187 3.683 4.557 6.721 8.245 6.505 8.461-.868.65-44.236-7.809-67.226-13.011-23.637-5.423-33.395-8.025-47.924-12.577l-11.928-3.905v-3.038c.216-14.53 18.651-36.214 49.877-58.331l2.819-1.954zm259.791 52.046c.869 0 1.95 1.951 4.552 7.806 7.373 16.263 30.364 60.07 35.997 68.526 1.74 2.822 4.771 3.038-25.802-1.95-73.512-11.93-97.152-15.829-97.152-16.263 0-.216 2.169-1.735 4.988-3.254 22.771-12.575 45.756-28.624 66.142-45.756 4.988-4.121 9.542-8.024 10.407-8.676.216-.433.652-.649.868-.433z"/>
		<radialGradient id="c" cx="-14217.448" cy="7277.705" r="898.12" gradientTransform="matrix(-.1185 -.0178 -.036 .237 -198.955 -1314.415)" gradientUnits="userSpaceOnUse">
			<stop offset="0" stop-color="#ee352c"/>
			<stop offset="1" stop-color="#a91d22"/>
		</radialGradient>
		<path fill="url(#c)" d="M804.66 294.828s-4.768 7.593-.215 18.87c2.822 6.937 11.061 15.393 20.384 24.069 0 0 96.5 94.114 108.211 107.561 53.344 61.585 76.549 122.305 78.718 206.012 1.301 53.78-8.894 101.054-34.264 155.919-45.106 98.453-140.307 207.098-287.117 327.67l21.472-7.157c13.878-10.411 32.745-21.467 76.982-45.756 102.137-55.952 217.071-107.346 358.028-160.258 202.971-76.335 536.715-165.681 726.676-194.736l19.737-3.038-3.038-4.771c-17.345-26.891-29.276-43.587-43.59-61.369-41.633-51.612-92.157-93.463-153.964-128.161-85.007-47.489-194.956-84.571-334.173-112.112-26.239-5.207-83.923-15.181-130.763-22.337-99.321-15.393-163.51-26.021-234.203-38.165-25.37-4.339-63.323-10.843-88.478-16.263-13.011-2.822-37.947-8.676-57.464-15.398-15.613-6.075-38.168-12.147-42.939-30.58zm55.952 54.216c.214-.214 3.683 1.083 8.24 2.602 8.24 2.816 18.865 6.07 31.446 9.542a1599.47 1599.47 0 0 0 28.624 7.589c13.011 3.251 23.852 6.288 24.068 6.288 1.521 1.519 23.424 71.558 30.797 98.449 2.815 10.195 4.988 18.867 4.771 18.867-.223.22-2.605-3.469-5.423-8.456-25.373-44.673-65.491-89.995-111.899-126.428-6.069-4.333-10.624-8.237-10.624-8.453zm106.692 29.492c1.085 0 5.856.651 11.708 1.951 36.866 8.24 103.008 20.818 145.293 27.975 7.157 1.083 12.797 2.387 12.797 2.818 0 .436-2.605 1.951-5.859 3.688-7.153 3.685-35.997 20.815-45.536 27.322-24.073 16.047-45.756 33.395-61.371 49.008-6.288 6.29-11.712 11.494-11.712 11.494s-1.297-3.685-2.386-8.242c-7.802-30.143-24.069-74.816-38.815-106.258-2.386-4.986-4.339-9.541-4.339-9.973 0 .433 0 .217.22.217zm187.795 35.781c1.301.432 3.47 7.806 7.806 24.069 8.025 31.446 11.712 66.576 10.411 99.321-.436 9.108-.868 17.564-1.304 18.651l-.649 2.166-11.276-3.685c-23.204-7.373-60.935-18.435-93.245-27.541-18.436-4.988-33.395-9.542-33.395-9.975 0-1.303 26.891-28.192 38.383-38.383 21.898-19.303 81.316-65.275 83.269-64.623zm14.963 2.166c.652-.647 89.779 14.746 130.331 22.554 30.145 5.854 73.948 14.963 76.549 16.049 1.301.432-3.254 3.034-17.784 9.539-57.248 25.808-99.754 49.008-142.036 77.202-11.06 7.373-20.386 13.444-20.602 13.444-.216 0-.433-6.287-.433-13.878 0-41.201-8.241-82.838-23.424-117.968-1.517-3.47-2.818-6.722-2.601-6.942zm230.516 45.542c.652.65-2.169 18.217-4.771 28.624-7.806 32.312-28.84 80.24-54.643 125.343-4.558 8.024-8.677 14.53-9.114 14.746-.429.216-6.285-3.038-13.009-6.941-25.154-14.746-53.778-28.624-85.007-41.637-8.671-3.685-16.263-6.723-16.48-7.153-1.521-1.303 68.308-47.493 105.174-69.612 29.276-17.781 76.982-44.239 77.85-43.37zm16.48 2.601c1.953 0 41.421 10.844 62.019 16.916 50.963 15.181 109.512 36.648 147.679 53.996l15.828 7.159-11.056 2.6c-93.245 21.467-173.049 46.192-250.034 77.418-6.289 2.602-11.928 4.771-12.357 4.771-.436 0 1.733-4.987 4.552-11.061 23.204-49.225 38.167-100.62 41.85-144.427.221-4.121.867-7.372 1.519-7.372zm-392.938 90.213c.649-.652 30.793 6.506 47.057 11.056 24.721 6.942 77.198 24.505 77.198 25.808 0 .216-5.853 5.204-12.79 11.278-28.408 23.637-55.734 48.572-88.481 80.234-9.759 9.328-17.997 16.917-18.429 16.917-.436 0-.649-1.304-.436-3.038 4.987-36.433 3.906-83.272-3.034-130.763-.653-6.074-1.302-11.276-1.085-11.492zm633.433.652c.429.431-13.881 22.984-22.988 35.777-13.009 18.649-32.098 43.375-75.252 97.588-22.765 28.622-48.358 60.936-56.812 71.778-8.678 10.842-15.831 19.948-16.051 19.948-.216 0-3.031-3.901-6.069-8.671-24.289-36.433-53.349-68.311-87.829-96.935-6.505-5.423-13.658-11.278-16.044-13.013-2.386-1.734-4.339-3.469-4.339-3.685 0-.649 36.862-16.483 64.841-27.757 49.01-19.952 115.794-43.805 165.892-59.203 26.24-8.239 54.215-16.263 54.651-15.827zm16.696 4.334c.865-.215 6.072 2.387 12.361 6.07 52.697 30.143 104.305 68.962 145.077 108.864 11.492 11.278 39.9 40.77 39.464 40.986 0 0-9.975.867-21.683 1.733-91.296 6.942-208.178 26.239-320.511 53.345-7.589 1.733-14.31 3.252-14.746 3.252-.429 0 8.025-8.456 18.653-18.647 65.922-63.538 96.067-103.656 131.628-175.22 4.986-10.623 9.325-19.731 9.757-20.383-.216 0-.216 0 0 0zm-482.936 49.446c3.038.647 31.229 13.88 52.48 24.503 19.517 9.755 48.794 25.372 50.311 26.671.216.216-10.195 5.638-22.984 11.928-40.772 20.384-75.684 39.682-112.118 61.802-10.408 6.29-19.082 11.497-19.298 11.497-.868 0-.652-.872 5.204-11.497 19.518-35.561 35.129-78.065 44.023-119.486.864-3.252 1.733-5.418 2.382-5.418zm-28.192 5.202c.652.652-6.721 27.323-11.273 41.853-8.894 27.541-23.856 62.02-38.383 88.043-3.474 6.069-8.677 14.961-11.496 19.948l-5.42 8.674-12.144-11.707c-14.094-13.663-25.59-22.12-40.333-29.712-5.859-3.033-10.411-5.638-10.411-6.069 0-1.735 37.082-35.347 65.49-59.635 20.383-17.566 63.321-52.045 63.97-51.395zm172.404 70.913l10.627 6.937c24.282 15.833 52.906 36.866 74.813 55.298 12.357 10.19 36.21 31.662 40.985 36.866l2.598 2.822-17.561 4.986c-99.321 27.538-176.087 52.043-265.649 85.007-9.975 3.685-18.433 6.721-19.085 6.721-1.297 0-2.385 1.083 19.954-19.519 57.251-52.691 107.992-110.812 145.726-167.411l7.592-11.707zm-45.324 11.276c.432.432-29.276 42.284-47.06 65.922-21.251 28.192-58.985 75.465-85.007 106.256-10.84 12.797-20.163 23.422-20.599 23.64-.652.216-.868-3.036-.868-8.024 0-26.242-6.721-54.216-18.433-78.068-4.988-9.975-5.856-12.361-4.768-13.444 4.119-3.688 67.223-39.686 107.123-61.153 26.89-14.312 68.956-35.563 69.612-35.129zm-274.107 67.225c.652 0 5.64 2.6 11.279 5.638 13.878 7.589 26.239 16.046 37.298 25.156.432.432-5.204 4.988-12.577 10.406-20.602 14.746-51.828 38.385-70.041 52.915-19.088 15.18-19.734 15.613-17.568 12.361 14.314-21.903 21.467-34.264 29.06-50.093 6.721-14.094 13.442-30.793 18.213-45.323 1.734-6.289 3.904-11.06 4.336-11.06zm73.083 57.248c1.081-.214 2.386 1.735 8.238 10.411 12.361 18.429 21.903 43.154 24.292 63.104l.429 4.339-29.705 11.494c-53.133 20.599-102.139 40.985-135.322 56.162-9.322 4.339-25.587 12.144-36.211 17.352-10.627 5.418-19.301 9.539-19.301 9.323s6.721-5.204 14.961-11.278c64.844-47.055 121.007-98.669 163.076-150.279 4.555-5.423 8.677-10.411 9.107-10.627l.436-.001zm-33.612 8.242c.868.867-23.853 28.84-40.768 45.971-41.853 42.723-83.273 76.12-134.669 108.649-6.505 4.119-12.359 7.804-13.011 8.24-1.519.867.432-1.303 22.986-25.808 14.314-15.397 25.155-28.408 37.516-44.453 8.24-10.624 9.759-12.143 21.688-20.604 31.878-22.987 105.39-72.864 106.258-71.995z"/>
	</g>
	<path fill="#FFFFFF" d="M 647.256 624.567 C 647.105 624.567 646.955 624.582 646.806 624.582 C 643.764 624.744 641.714 626.082 640.515 628.696 C 639.489 631.06 639.601 634.149 640.527 636.527 C 641.602 638.85 643.34 640.077 646.242 640.54 C 646.856 640.64 647.268 640.977 648.456 642.366 L 649.92 644.08 L 652.573 644.08 L 650.808 642.301 C 649.834 641.327 649.045 640.477 649.045 640.402 C 649.045 640.327 649.418 640.165 649.869 640.027 C 651.358 639.576 652.595 638.426 653.459 636.663 C 654.159 635.247 654.26 634.81 654.36 633.048 C 654.623 627.806 651.858 624.528 647.256 624.566 L 647.256 624.567 Z M 649.582 638.276 C 648.291 638.902 646.417 639.027 645.194 638.578 C 643.929 638.114 642.704 636.8 642.152 635.312 C 641.541 633.686 641.628 630.685 642.328 629.334 C 643.454 627.182 644.943 626.193 647.118 626.193 C 650.345 626.193 652.182 628.169 652.421 631.885 C 652.61 634.985 651.572 637.311 649.584 638.276 L 649.582 638.276 Z M 695.421 629.046 C 694.308 629.046 693.456 629.496 692.882 630.384 L 692.432 631.087 L 692.432 629.259 L 690.506 629.259 L 690.506 640.218 L 692.43 640.218 L 692.43 636.715 C 692.43 633.512 692.47 633.138 692.918 632.261 C 693.534 631.06 694.596 630.46 695.621 630.747 L 696.31 630.947 L 696.31 629.049 L 695.421 629.049 L 695.421 629.046 Z M 684.104 628.945 C 683.726 628.945 683.327 628.995 682.928 629.083 C 680.35 629.757 678.897 632.224 678.986 634.763 C 678.986 636.888 679.399 637.951 680.425 639.065 C 682.526 640.79 684.427 640.927 686.991 640.002 C 687.429 639.815 687.905 639.6 687.905 639.6 L 687.905 637.876 L 686.991 638.35 C 684.916 639.254 683.353 639.254 682.1 638.189 C 681.301 637.376 680.949 636.4 680.788 635.287 L 688.555 635.287 L 688.555 633.81 C 688.555 630.798 686.742 628.896 684.102 628.945 L 684.104 628.945 Z M 680.963 633.75 C 680.963 633.75 681.25 631.871 682.314 631.134 C 682.826 630.772 683.414 630.598 683.989 630.598 C 684.565 630.598 685.141 630.784 685.616 631.147 C 686.591 631.897 686.755 633.736 686.755 633.736 L 680.963 633.736 L 680.963 633.75 Z M 634.523 631.774 C 632.435 630.508 631.509 629.596 631.621 628.52 C 631.946 625.544 635.624 625.955 637.66 627.081 L 637.675 625.08 C 637.675 625.08 636.549 624.592 634.935 624.566 C 632.46 624.528 630.858 625.34 630.108 626.993 C 629.007 629.431 629.982 631.27 633.508 633.321 C 635.488 634.473 636.362 635.473 636.362 636.563 C 636.362 638.815 633.647 639.6 630.846 638.188 C 630.27 637.901 629.782 637.661 629.756 637.661 C 629.656 638.3 629.707 639.827 629.707 639.827 C 629.707 639.827 630.568 640.189 631.859 640.438 C 635.06 641.076 637.973 639.574 638.249 637.137 C 638.488 634.848 637.66 633.647 634.523 631.772 L 634.523 631.774 Z M 712.469 628.92 C 712.093 628.92 711.694 628.97 711.279 629.058 C 708.704 629.732 707.253 632.199 707.353 634.739 C 707.353 636.861 707.764 637.914 708.79 639.027 C 710.892 640.753 712.792 640.891 715.369 639.965 C 715.806 639.778 716.28 639.567 716.28 639.567 L 716.28 637.84 L 715.368 638.315 C 713.288 639.216 711.725 639.216 710.476 638.152 C 709.674 637.341 709.325 636.376 709.163 635.25 L 716.917 635.25 L 716.917 633.773 C 716.917 630.775 715.104 628.872 712.465 628.922 L 712.469 628.92 Z M 709.328 633.724 C 709.328 633.724 709.618 631.848 710.68 631.097 C 711.191 630.734 711.779 630.559 712.354 630.559 C 712.928 630.559 713.507 630.745 713.982 631.11 C 714.956 631.86 715.12 633.712 715.12 633.712 L 709.329 633.712 L 709.328 633.724 Z M 674.021 631.798 C 671.932 630.536 671.008 629.621 671.12 628.545 C 671.444 625.567 675.123 625.98 677.159 627.106 L 677.173 625.104 C 677.173 625.104 676.047 624.616 674.434 624.593 C 671.958 624.556 670.357 625.368 669.606 627.019 C 668.506 629.459 669.494 631.297 673.008 633.349 C 674.985 634.499 675.86 635.485 675.86 636.576 C 675.86 638.828 673.146 639.627 670.344 638.201 C 669.771 637.913 669.284 637.677 669.254 637.677 C 669.154 638.315 669.205 639.843 669.205 639.843 C 669.205 639.843 670.056 640.191 671.343 640.454 C 674.547 641.094 677.461 639.593 677.736 637.155 C 677.974 634.877 677.147 633.677 674.021 631.8 L 674.021 631.798 Z M 723.787 629.02 C 722.674 629.02 721.813 629.471 721.249 630.359 L 720.798 631.06 L 720.798 629.235 L 718.872 629.235 L 718.872 640.19 L 720.797 640.19 L 720.797 636.688 C 720.797 633.486 720.835 633.11 721.284 632.236 C 721.901 631.035 722.963 630.434 723.988 630.722 L 724.677 630.923 L 724.677 629.02 L 723.787 629.02 Z M 658.702 631.735 L 658.702 624.755 L 656.76 624.755 L 656.76 640.214 L 664.927 640.214 L 664.927 638.389 L 658.702 638.389 L 658.702 631.735 Z M 703.614 633.91 L 702.013 638.076 L 700.473 633.888 L 698.911 629.246 L 696.923 629.246 C 698.21 632.898 699.612 636.613 701.025 640.214 C 701.637 640.229 702.251 640.214 702.863 640.214 L 705.025 634.787 L 707.227 629.247 L 705.327 629.247 C 705.327 629.247 704.487 631.448 703.612 633.912 L 703.614 633.91 Z M 663.177 620.542 C 663.49 620.542 663.75 620.443 663.966 620.227 C 664.178 620.015 664.29 619.766 664.29 619.453 C 664.29 619.14 664.178 618.879 663.966 618.678 C 663.75 618.477 663.503 618.376 663.191 618.376 C 662.876 618.376 662.615 618.477 662.402 618.69 C 662.187 618.901 662.09 619.163 662.09 619.464 C 662.09 619.779 662.19 620.041 662.402 620.239 C 662.603 620.439 662.864 620.54 663.177 620.54 L 663.177 620.542 Z M 662.488 618.764 C 662.675 618.578 662.901 618.492 663.191 618.492 C 663.464 618.492 663.691 618.578 663.88 618.764 C 664.067 618.951 664.167 619.177 664.167 619.453 C 664.167 619.728 664.067 619.966 663.88 620.153 C 663.691 620.339 663.464 620.428 663.191 620.428 C 662.915 620.428 662.69 620.342 662.503 620.153 C 662.316 619.966 662.217 619.728 662.217 619.453 C 662.217 619.177 662.302 618.951 662.488 618.764 Z M 662.952 619.553 L 663.078 619.553 C 663.167 619.553 663.255 619.639 663.329 619.803 L 663.479 620.142 L 663.716 620.142 L 663.53 619.766 C 663.454 619.615 663.38 619.527 663.292 619.502 C 663.402 619.477 663.49 619.44 663.552 619.365 C 663.615 619.301 663.639 619.213 663.639 619.114 C 663.639 618.999 663.603 618.913 663.527 618.85 C 663.441 618.778 663.303 618.739 663.126 618.739 L 662.727 618.739 L 662.727 620.142 L 662.927 620.142 L 662.927 619.553 L 662.952 619.553 Z M 662.952 618.901 L 663.127 618.901 C 663.253 618.901 663.343 618.928 663.391 618.965 C 663.438 619.002 663.451 619.051 663.451 619.14 C 663.451 619.302 663.35 619.378 663.164 619.378 L 662.949 619.378 L 662.949 618.901 L 662.952 618.901 Z M 630.871 619.428 C 630.871 618.941 630.857 618.578 630.846 618.364 L 630.857 618.364 C 630.907 618.616 630.969 618.804 631.019 618.929 L 632.884 623.094 L 633.196 623.094 L 635.061 618.892 C 635.111 618.777 635.162 618.605 635.224 618.365 L 635.237 618.365 C 635.2 618.782 635.187 619.143 635.187 619.431 L 635.187 623.107 L 635.826 623.107 L 635.826 617.643 L 635.025 617.643 L 633.311 621.443 C 633.248 621.594 633.16 621.819 633.049 622.117 L 633.023 622.117 C 632.986 621.97 632.899 621.745 632.774 621.469 L 631.098 617.63 L 630.248 617.63 L 630.248 623.094 L 630.861 623.094 L 630.861 619.431 L 630.871 619.428 Z M 637.224 619.438 L 637.775 619.438 L 637.775 622.842 L 637.224 622.842 L 637.224 619.438 Z M 637.5 618.191 C 637.615 618.191 637.712 618.152 637.786 618.075 C 637.863 618.001 637.913 617.903 637.913 617.789 C 637.913 617.677 637.876 617.577 637.788 617.503 C 637.71 617.426 637.611 617.387 637.498 617.387 C 637.386 617.387 637.286 617.426 637.211 617.503 C 637.136 617.577 637.085 617.677 637.085 617.789 C 637.085 617.914 637.124 618.001 637.211 618.075 C 637.297 618.152 637.386 618.191 637.498 618.191 L 637.5 618.191 Z M 641.702 622.916 L 641.702 622.317 C 641.401 622.542 641.077 622.654 640.741 622.654 C 640.34 622.654 640.014 622.516 639.776 622.253 C 639.539 621.992 639.414 621.629 639.414 621.177 C 639.414 620.704 639.539 620.327 639.8 620.041 C 640.051 619.766 640.377 619.627 640.776 619.627 C 641.101 619.627 641.413 619.728 641.702 619.929 L 641.702 619.291 C 641.44 619.153 641.14 619.09 640.802 619.09 C 640.176 619.09 639.689 619.291 639.324 619.678 C 638.963 620.065 638.776 620.591 638.776 621.227 C 638.776 621.792 638.939 622.267 639.276 622.63 C 639.627 623.003 640.076 623.193 640.627 623.193 C 641.052 623.181 641.401 623.091 641.702 622.916 Z M 643.279 621.102 C 643.279 620.653 643.379 620.29 643.566 620.041 C 643.74 619.816 643.953 619.703 644.204 619.703 C 644.416 619.703 644.567 619.741 644.677 619.828 L 644.677 619.177 C 644.591 619.14 644.466 619.127 644.304 619.127 C 644.078 619.127 643.879 619.203 643.701 619.342 C 643.516 619.49 643.366 619.715 643.279 620.002 L 643.264 620.002 L 643.264 619.203 L 642.641 619.203 L 642.641 623.105 L 643.265 623.105 L 643.265 621.102 L 643.279 621.102 Z M 646.869 623.181 C 647.457 623.181 647.93 622.992 648.282 622.617 C 648.632 622.244 648.807 621.741 648.807 621.116 C 648.807 620.478 648.646 619.991 648.319 619.627 C 647.995 619.265 647.544 619.09 646.956 619.09 C 646.368 619.09 645.895 619.265 645.544 619.603 C 645.168 619.976 644.969 620.503 644.969 621.178 C 644.969 621.766 645.13 622.254 645.469 622.617 C 645.819 622.992 646.282 623.181 646.869 623.181 L 646.869 623.181 Z M 645.979 620.003 C 646.217 619.752 646.531 619.627 646.918 619.627 C 647.319 619.627 647.62 619.752 647.844 620.003 C 648.069 620.266 648.181 620.64 648.181 621.141 C 648.181 621.618 648.081 621.991 647.869 622.242 C 647.657 622.505 647.343 622.644 646.931 622.644 C 646.529 622.644 646.217 622.505 645.979 622.242 C 645.743 621.979 645.629 621.618 645.629 621.141 C 645.605 620.667 645.731 620.28 645.979 620.003 Z M 651.545 622.842 C 651.783 622.63 651.908 622.369 651.908 622.042 C 651.908 621.754 651.809 621.517 651.622 621.329 C 651.47 621.178 651.235 621.042 650.895 620.905 C 650.593 620.778 650.407 620.666 650.307 620.579 C 650.207 620.478 650.145 620.353 650.145 620.177 C 650.145 620.015 650.208 619.89 650.332 619.79 C 650.457 619.689 650.618 619.641 650.833 619.641 C 651.17 619.641 651.458 619.73 651.723 619.918 L 651.723 619.293 C 651.47 619.166 651.196 619.106 650.884 619.106 C 650.482 619.106 650.143 619.217 649.894 619.429 C 649.631 619.642 649.507 619.918 649.507 620.241 C 649.507 620.529 649.593 620.767 649.755 620.941 C 649.894 621.091 650.129 621.243 650.456 621.379 C 650.769 621.517 650.981 621.641 651.094 621.741 C 651.206 621.842 651.256 621.967 651.256 622.115 C 651.256 622.479 651.007 622.667 650.519 622.667 C 650.143 622.667 649.806 622.543 649.505 622.294 L 649.505 622.968 C 649.778 623.131 650.105 623.206 650.466 623.206 C 650.929 623.182 651.292 623.069 651.542 622.843 L 651.545 622.842 Z M 654.522 619.09 C 653.934 619.09 653.461 619.265 653.109 619.603 C 652.737 619.976 652.535 620.503 652.535 621.179 C 652.535 621.766 652.698 622.254 653.035 622.617 C 653.386 622.993 653.848 623.181 654.436 623.181 C 655.038 623.181 655.498 622.991 655.849 622.615 C 656.201 622.243 656.375 621.741 656.375 621.115 C 656.375 620.476 656.212 619.989 655.887 619.626 C 655.549 619.263 655.099 619.089 654.525 619.089 L 654.522 619.09 Z M 655.736 621.141 C 655.736 621.618 655.635 621.991 655.423 622.242 C 655.211 622.505 654.898 622.644 654.485 622.644 C 654.083 622.644 653.772 622.505 653.534 622.242 C 653.297 621.979 653.184 621.618 653.184 621.141 C 653.184 620.639 653.309 620.252 653.56 619.991 C 653.796 619.741 654.109 619.615 654.498 619.615 C 654.885 619.615 655.197 619.741 655.421 619.991 C 655.623 620.266 655.734 620.64 655.734 621.141 L 655.736 621.141 Z M 657.425 623.093 L 658.049 623.093 L 658.049 619.715 L 658.963 619.715 L 658.963 619.19 L 658.049 619.19 L 658.049 618.587 C 658.049 618.04 658.262 617.764 658.7 617.764 C 658.848 617.764 658.999 617.802 659.111 617.865 L 659.111 617.301 C 658.999 617.251 658.848 617.24 658.661 617.24 C 658.323 617.24 658.047 617.34 657.823 617.552 C 657.56 617.802 657.421 618.126 657.421 618.566 L 657.421 619.205 L 656.761 619.205 L 656.761 619.73 L 657.421 619.73 L 657.421 623.094 L 657.425 623.093 Z M 659.989 622.029 C 659.989 622.792 660.326 623.181 661.014 623.181 C 661.264 623.181 661.451 623.141 661.602 623.051 L 661.602 622.515 C 661.487 622.602 661.351 622.641 661.201 622.641 C 660.988 622.641 660.839 622.591 660.752 622.478 C 660.662 622.366 660.612 622.177 660.612 621.915 L 660.612 619.714 L 661.602 619.714 L 661.602 619.188 L 660.612 619.188 L 660.612 618.038 C 660.397 618.113 660.187 618.176 659.987 618.239 L 659.987 619.188 L 659.313 619.188 L 659.313 619.714 L 659.987 619.714 L 659.987 622.027 L 659.989 622.029 Z M 727.115 629.221 C 726.903 629.02 726.652 628.919 726.34 628.919 C 726.026 628.919 725.764 629.02 725.552 629.235 C 725.339 629.446 725.239 629.708 725.239 630.009 C 725.239 630.322 725.339 630.583 725.55 630.784 C 725.762 630.984 726.023 631.085 726.339 631.085 C 726.65 631.085 726.912 630.984 727.128 630.772 C 727.339 630.557 727.451 630.31 727.451 629.998 C 727.439 629.683 727.326 629.421 727.114 629.221 L 727.115 629.221 Z M 727.015 630.698 C 726.828 630.884 726.602 630.97 726.326 630.97 C 726.054 630.97 725.827 630.884 725.638 630.698 C 725.452 630.508 725.35 630.272 725.35 629.995 C 725.35 629.722 725.437 629.496 725.626 629.307 C 725.813 629.12 726.038 629.034 726.326 629.034 C 726.598 629.034 726.826 629.12 727.015 629.307 C 727.201 629.496 727.301 629.722 727.301 629.995 C 727.301 630.285 727.215 630.508 727.015 630.698 Z M 726.452 630.059 C 726.564 630.033 726.654 629.984 726.715 629.922 C 726.778 629.857 726.801 629.769 726.801 629.67 C 726.801 629.558 726.765 629.468 726.69 629.407 C 726.603 629.335 726.464 629.296 726.288 629.296 L 725.889 629.296 L 725.889 630.697 L 726.09 630.697 L 726.09 630.108 L 726.215 630.108 C 726.301 630.108 726.387 630.194 726.464 630.358 L 726.613 630.695 L 726.851 630.695 L 726.665 630.319 C 726.6 630.156 726.526 630.081 726.45 630.056 L 726.452 630.059 Z M 726.315 629.934 L 726.1 629.934 L 726.1 629.46 L 726.276 629.46 C 726.402 629.46 726.488 629.483 726.538 629.522 C 726.589 629.559 726.6 629.608 726.6 629.697 C 726.6 629.859 726.5 629.934 726.314 629.934 L 726.315 629.934 Z M 691.419 619.028 L 691.594 619.028 L 691.594 617.627 L 692.057 617.627 L 692.057 617.452 L 690.956 617.452 L 690.956 617.627 L 691.419 617.627 L 691.419 619.028 Z M 692.481 617.976 C 692.481 617.839 692.481 617.727 692.47 617.664 C 692.482 617.738 692.507 617.789 692.519 617.826 L 693.057 619.028 L 693.143 619.028 L 693.682 617.815 C 693.697 617.778 693.708 617.729 693.732 617.664 C 693.721 617.789 693.721 617.889 693.721 617.965 L 693.721 619.027 L 693.908 619.027 L 693.908 617.452 L 693.682 617.452 L 693.195 618.539 C 693.184 618.578 693.145 618.653 693.12 618.739 L 693.105 618.739 C 693.096 618.69 693.07 618.64 693.034 618.554 L 692.546 617.452 L 692.294 617.452 L 692.294 619.029 L 692.47 619.029 L 692.47 617.976 L 692.481 617.976 Z" style="" transform="matrix(0.9999999999999999, 0, 0, 0.9999999999999999, 0, 0)"/>
</svg>