<?xml version="1.0" encoding="utf-8"?>
<svg viewBox="1.032 15.078 68.2399 31.5" xmlns="http://www.w3.org/2000/svg">
	<path fill="#f38020" d="M 9.494 25.008 L 11.316 26.061 L 11.316 28.164 L 9.494 29.216 L 7.673 28.164 L 7.673 26.061 L 9.494 25.008 Z M 7.367 41.117 L 9.494 38.989 L 11.622 41.117 L 9.494 43.245 L 7.367 41.117 Z M 9.494 32.281 C 9.851 32.281 10.198 32.387 10.498 32.585 C 10.794 32.783 11.026 33.065 11.16 33.396 C 11.296 33.726 11.331 34.088 11.262 34.437 C 11.192 34.786 11.021 35.109 10.768 35.362 C 10.516 35.615 10.196 35.786 9.843 35.856 C 9.494 35.926 9.127 35.889 8.803 35.753 C 8.474 35.617 8.19 35.385 7.992 35.092 C 7.793 34.795 7.687 34.448 7.687 34.088 C 7.687 33.61 7.878 33.15 8.216 32.814 C 8.555 32.475 9.016 32.285 9.49 32.285 L 9.494 32.281 Z M 1.5 18.397 L 5.36 15.457 L 6.087 15.236 L 23.517 15.236 L 24.232 15.47 L 28.205 18.409 L 28.698 19.376 L 28.698 42.217 L 28.367 43.046 L 25.464 46.117 L 24.587 46.496 L 5.533 46.496 L 4.71 46.171 L 1.416 43.1 L 1.032 42.217 L 1.032 19.376 L 1.5 18.397 Z M 3.43 33.663 L 6.116 36.633 L 6.151 36.633 L 6.151 39.037 L 5.051 39.037 L 3.427 37.234 L 3.427 41.675 L 5.988 44.08 L 24.019 44.08 L 26.243 41.73 L 26.243 37.089 L 24.038 39.037 L 12.858 39.037 L 12.858 36.633 L 23.196 36.633 L 26.316 33.862 L 26.316 29.39 L 24.11 31.343 L 12.87 31.343 L 12.87 28.939 L 23.208 28.939 L 26.327 26.175 L 26.327 22.016 L 24.122 23.975 L 5.129 23.975 L 3.482 22.292 L 3.482 25.97 L 6.168 28.939 L 6.202 28.939 L 6.202 31.343 L 5.102 31.343 L 3.479 29.54 L 3.43 33.663 Z M 23.084 17.615 L 6.495 17.615 L 4.049 19.485 L 6.093 21.576 L 23.163 21.576 L 25.567 19.437 L 23.084 17.615 Z" style=""/>
	<text style="white-space: pre; fill: #ffffff; font-family: -apple-system, system-ui, Segoe UI, Roboto, Oxygen, Ubuntu, Cantarell, Fira Sans, Droid Sans, Helvetica Neue, sans-serif; font-size: 28px;" x="33.475" y="40.578">D1</text>
</svg>