<?xml version="1.0" encoding="utf-8"?>
<svg viewBox="2.835 60.2395 65.959 65.6955" width="65.959" height="65.696" xmlns="http://www.w3.org/2000/svg">
	<path d="M 47.669 99.051 C 48.011 96.213 47.908 95.798 50.023 96.257 L 50.558 96.304 C 52.184 96.379 54.309 96.043 55.557 95.462 C 58.247 94.216 59.84 92.133 57.188 92.68 C 51.142 93.926 50.727 91.88 50.727 91.88 C 57.112 82.406 59.782 70.381 57.478 67.436 C 51.194 59.406 40.317 63.204 40.134 63.302 L 40.076 63.314 C 38.881 63.065 37.545 62.917 36.043 62.892 C 33.306 62.849 31.23 63.61 29.654 64.804 C 29.654 64.804 10.25 56.81 11.153 74.859 C 11.345 78.699 16.656 103.911 22.991 96.295 C 25.305 93.512 27.543 91.157 27.543 91.157 C 28.656 91.894 29.986 92.27 31.38 92.136 L 31.488 92.044 C 31.455 92.389 31.469 92.727 31.532 93.128 C 29.9 94.951 30.38 95.272 27.116 95.943 C 23.815 96.623 25.755 97.834 27.021 98.152 C 28.556 98.535 32.107 99.079 34.507 95.72 L 34.411 96.104 C 35.053 96.616 35.007 99.785 35.098 102.049 C 35.189 104.312 35.342 106.424 35.802 107.673 C 36.264 108.917 36.81 112.126 41.098 111.208 C 44.68 110.439 47.42 109.334 47.669 99.051" style="" transform="matrix(1, 0, 0, 1, 0, 8.881784197001252e-16)"/>
	<path d="M 39.702 113.444 C 37.803 113.444 36.569 112.712 35.818 112.002 C 34.687 110.936 34.237 109.559 33.969 108.736 L 33.854 108.392 C 33.313 106.933 33.13 104.835 33.022 102.131 C 33.006 101.725 32.994 101.307 32.982 100.862 C 32.972 100.538 32.961 100.132 32.945 99.707 C 32.271 100.029 31.549 100.257 30.789 100.388 C 29.452 100.616 28.016 100.541 26.517 100.167 C 25.459 99.902 24.361 99.354 23.733 98.509 C 21.908 100.107 20.168 99.89 19.218 99.574 C 17.547 99.016 16.049 97.447 14.641 94.781 C 13.639 92.881 12.668 90.405 11.758 87.423 C 10.173 82.228 9.166 76.759 9.075 74.963 C 8.795 69.34 10.308 65.32 13.573 63.014 C 18.725 59.375 26.529 61.515 29.375 62.486 C 31.286 61.334 33.535 60.773 36.078 60.814 C 37.443 60.835 38.741 60.956 39.949 61.17 C 41.208 60.774 43.695 60.206 46.543 60.241 C 51.79 60.304 56.137 62.348 59.115 66.154 C 61.239 68.869 60.19 74.571 59.374 77.728 C 58.227 82.169 56.216 86.893 53.746 91.005 C 54.417 91.008 55.388 90.928 56.77 90.644 C 59.495 90.081 60.291 91.542 60.507 92.195 C 61.374 94.821 57.609 96.803 56.434 97.348 C 54.928 98.047 52.473 98.472 50.464 98.38 L 50.376 98.375 L 49.848 98.328 L 49.796 98.769 L 49.745 99.199 C 49.611 104.409 48.865 107.709 47.335 109.89 C 45.729 112.177 43.496 112.816 41.532 113.238 C 40.863 113.383 40.254 113.444 39.702 113.444 Z M 35.71 94.479 C 36.934 95.459 37.042 97.303 37.138 100.747 C 37.148 101.178 37.16 101.586 37.176 101.966 C 37.221 103.116 37.329 105.811 37.751 106.949 C 37.812 107.109 37.864 107.273 37.92 107.446 C 38.391 108.887 38.628 109.609 40.66 109.173 C 42.369 108.807 43.245 108.48 43.932 107.502 C 44.931 106.079 45.489 103.219 45.592 99.001 L 47.669 99.051 L 45.606 98.804 L 45.667 98.288 C 45.864 96.592 46.006 95.364 47.141 94.552 C 48.051 93.902 49.09 93.965 49.916 94.115 C 49.008 93.428 48.757 92.623 48.691 92.293 L 48.517 91.441 L 49.003 90.717 C 51.808 86.557 54.121 81.444 55.348 76.689 C 56.61 71.803 56.225 69.207 55.841 68.718 C 50.748 62.209 41.914 64.895 40.992 65.202 L 40.835 65.285 L 40.054 65.432 L 39.653 65.348 C 38.549 65.12 37.322 64.993 36.008 64.97 C 33.942 64.937 32.276 65.425 30.909 66.46 L 29.961 67.18 L 28.861 66.727 C 26.512 65.765 19.609 63.833 15.966 66.413 C 13.944 67.846 13.022 70.652 13.227 74.754 C 13.295 76.11 14.216 81.237 15.732 86.21 C 17.831 93.083 19.738 95.364 20.533 95.631 C 20.672 95.678 21.033 95.398 21.39 94.967 C 23.724 92.161 25.942 89.823 26.036 89.724 L 27.238 88.458 L 28.692 89.426 C 29.278 89.814 29.925 90.036 30.589 90.078 L 34.057 87.12 L 33.555 92.246 C 33.543 92.363 33.538 92.518 33.583 92.809 L 33.735 93.782 L 33.081 94.514 L 33.005 94.599 L 34.91 95.478 L 35.71 94.479 Z" style="" transform="matrix(1, 0, 0, 1, 0, 8.881784197001252e-16)"/>
	<path d="M 57.19 92.68 C 51.143 93.926 50.729 91.88 50.729 91.88 C 57.114 82.406 59.782 70.379 57.478 67.435 C 51.194 59.406 40.317 63.204 40.136 63.302 L 40.076 63.312 C 38.881 63.065 37.545 62.917 36.041 62.892 C 33.306 62.849 31.23 63.61 29.654 64.804 C 29.654 64.804 10.25 56.81 11.151 74.859 C 11.343 78.699 16.656 103.911 22.991 96.295 C 25.305 93.512 27.543 91.157 27.543 91.157 C 28.654 91.894 29.984 92.27 31.378 92.136 L 31.488 92.044 C 31.453 92.389 31.469 92.727 31.53 93.128 C 29.898 94.951 30.378 95.272 27.116 95.943 C 23.815 96.623 25.753 97.834 27.021 98.152 C 28.554 98.535 32.107 99.079 34.505 95.72 L 34.41 96.104 C 35.049 96.616 35.499 99.435 35.422 101.99 C 35.347 104.547 35.297 106.301 35.801 107.673 C 36.306 109.043 36.808 112.126 41.096 111.208 C 44.68 110.439 46.536 108.448 46.796 105.129 C 46.979 102.769 47.394 103.118 47.42 101.009 L 47.753 100.008 C 48.137 96.809 47.814 95.778 50.023 96.257 L 50.558 96.304 C 52.184 96.379 54.311 96.043 55.559 95.462 C 58.247 94.216 59.841 92.133 57.19 92.68 Z" fill="#336791" style="" transform="matrix(1, 0, 0, 1, 0, 8.881784197001252e-16)"/>
	<path d="M 39.918 112.164 C 36.343 112.164 35.21 109.334 34.746 108.175 C 34.068 106.478 33.922 99.895 34.073 94.495 C 34.084 94.111 34.401 93.81 34.784 93.822 C 35.168 93.832 35.469 94.151 35.459 94.533 C 35.285 100.761 35.532 106.405 36.032 107.66 C 36.817 109.618 38.004 111.331 41.365 110.613 C 44.553 109.928 45.748 108.718 46.28 105.637 C 46.688 103.269 47.495 96.538 47.594 95.209 C 47.622 94.828 47.954 94.54 48.337 94.57 C 48.719 94.597 49.005 94.93 48.977 95.312 C 48.872 96.694 48.069 103.414 47.645 105.872 C 47.016 109.513 45.393 111.166 41.654 111.968 C 41.019 112.103 40.442 112.164 39.918 112.164 Z M 20.533 98.336 C 20.193 98.336 19.883 98.274 19.614 98.185 C 17.292 97.409 15.08 93.628 13.041 86.944 C 11.488 81.854 10.503 76.544 10.418 74.817 C 10.161 69.701 11.479 66.08 14.334 64.057 C 19.982 60.054 29.485 63.867 29.886 64.03 C 30.242 64.175 30.411 64.579 30.266 64.933 C 30.122 65.287 29.717 65.458 29.363 65.313 C 29.271 65.275 20.16 61.625 15.133 65.19 C 12.691 66.92 11.57 70.137 11.8 74.749 C 11.873 76.203 12.793 81.387 14.366 86.539 C 16.187 92.506 18.26 96.273 20.053 96.87 C 20.334 96.965 21.19 97.25 22.415 95.778 C 24.718 93.006 26.834 90.794 26.855 90.773 C 27.12 90.496 27.559 90.487 27.836 90.752 C 28.112 91.015 28.12 91.455 27.857 91.732 C 27.836 91.753 25.752 93.932 23.48 96.663 C 22.405 97.956 21.373 98.336 20.533 98.336 Z M 50.685 92.497 C 50.551 92.497 50.417 92.459 50.298 92.379 C 49.981 92.166 49.897 91.734 50.11 91.416 C 56.564 81.838 58.83 70.265 56.89 67.787 C 54.448 64.667 50.999 63.035 46.639 62.943 C 43.411 62.873 40.845 63.697 40.427 63.84 L 40.32 63.884 C 39.899 64.016 39.576 63.785 39.454 63.514 C 39.309 63.195 39.428 62.817 39.728 62.634 L 39.914 62.559 L 39.906 62.561 L 39.914 62.557 C 40.627 62.298 43.231 61.515 46.46 61.553 C 51.283 61.604 55.268 63.464 57.982 66.933 C 59.266 68.573 59.27 72.355 57.99 77.306 C 56.686 82.354 54.232 87.78 51.26 92.192 C 51.126 92.391 50.908 92.497 50.685 92.497 Z M 51.014 96.932 C 49.913 96.932 48.924 96.776 48.333 96.421 C 47.725 96.058 47.608 95.561 47.593 95.3 C 47.427 92.385 49.036 91.878 49.855 91.646 C 49.74 91.474 49.578 91.272 49.411 91.061 C 48.931 90.465 48.278 89.645 47.772 88.422 C 47.694 88.23 47.446 87.785 47.159 87.271 C 45.606 84.484 42.37 78.685 44.448 75.714 C 45.41 74.339 47.324 73.799 50.145 74.1 C 49.315 71.573 45.363 63.663 35.987 63.509 C 33.167 63.462 30.854 64.33 29.116 66.084 C 25.223 70.014 25.365 77.125 25.366 77.196 C 25.377 77.578 25.075 77.897 24.692 77.907 C 24.31 77.918 23.991 77.614 23.982 77.233 C 23.974 76.917 23.827 69.455 28.131 65.109 C 30.144 63.075 32.795 62.071 36.01 62.123 C 42.01 62.223 45.87 65.272 48.055 67.813 C 50.432 70.583 51.6 73.638 51.696 74.656 C 51.767 75.415 51.224 75.566 51.114 75.589 L 50.863 75.594 C 48.095 75.151 46.318 75.458 45.585 76.509 C 44.004 78.767 47.063 84.254 48.37 86.597 C 48.703 87.195 48.944 87.625 49.053 87.894 C 49.484 88.934 50.043 89.633 50.493 90.194 C 50.887 90.689 51.231 91.117 51.354 91.62 C 51.41 91.72 52.219 92.914 57.009 91.925 C 58.21 91.678 58.93 91.89 59.149 92.555 C 59.582 93.865 57.154 95.392 55.808 96.016 C 54.602 96.578 52.679 96.932 51.014 96.932 Z M 48.975 95.185 C 49.127 95.338 49.887 95.603 51.462 95.535 C 52.862 95.476 54.338 95.171 55.226 94.76 C 56.359 94.233 57.115 93.646 57.506 93.243 L 57.288 93.283 C 54.225 93.916 52.059 93.832 50.849 93.032 C 50.763 92.976 50.685 92.917 50.615 92.858 C 50.484 92.91 50.362 92.945 50.277 92.969 C 49.59 93.161 48.881 93.36 48.975 95.185 Z M 29.189 99.056 C 28.427 99.056 27.627 98.954 26.81 98.748 C 25.963 98.535 24.533 97.897 24.556 96.85 C 24.58 95.675 26.29 95.321 26.933 95.188 C 29.259 94.711 29.41 94.519 30.137 93.595 C 30.35 93.327 30.613 92.992 30.972 92.589 C 31.506 91.993 32.09 91.69 32.707 91.69 C 33.135 91.69 33.487 91.836 33.719 91.932 C 34.462 92.239 35.081 92.983 35.335 93.872 C 35.565 94.674 35.455 95.446 35.027 96.046 C 33.622 98.016 31.601 99.056 29.189 99.056 Z M 26.053 96.911 C 26.262 97.071 26.681 97.287 27.146 97.404 C 27.854 97.58 28.541 97.671 29.189 97.671 C 31.164 97.671 32.748 96.853 33.899 95.241 C 34.139 94.904 34.068 94.479 34.003 94.254 C 33.869 93.783 33.535 93.356 33.189 93.212 C 33.003 93.135 32.848 93.076 32.707 93.076 C 32.63 93.076 32.396 93.076 32.006 93.513 C 31.675 93.883 31.436 94.186 31.225 94.453 C 30.32 95.602 29.905 95.992 27.214 96.546 C 26.557 96.682 26.219 96.818 26.053 96.911 Z M 31.38 93.714 C 31.044 93.714 30.749 93.468 30.697 93.126 C 30.679 93.011 30.667 92.894 30.662 92.779 C 28.896 92.745 27.193 91.988 25.901 90.639 C 24.266 88.934 23.524 86.57 23.86 84.158 C 24.226 81.536 24.09 79.222 24.017 77.979 C 23.996 77.632 23.981 77.383 23.982 77.21 C 23.984 76.99 23.988 76.41 25.931 75.423 C 26.623 75.073 28.009 74.463 29.524 74.306 C 32.032 74.046 33.686 75.164 34.181 77.452 C 35.516 83.632 34.288 86.365 33.388 88.359 C 33.221 88.73 33.062 89.082 32.937 89.422 L 32.825 89.722 C 32.351 90.994 31.94 92.094 32.067 92.915 C 32.124 93.294 31.865 93.647 31.486 93.707 L 31.38 93.714 Z M 25.373 77.402 L 25.399 77.897 C 25.476 79.187 25.619 81.59 25.232 84.35 C 24.955 86.34 25.563 88.284 26.902 89.682 C 27.96 90.785 29.353 91.395 30.784 91.395 L 30.814 91.395 C 30.974 90.719 31.241 90.006 31.526 89.237 L 31.638 88.939 C 31.781 88.556 31.948 88.185 32.124 87.791 C 32.989 85.87 34.066 83.478 32.827 77.745 C 32.581 76.61 31.985 75.953 31.007 75.735 C 28.996 75.291 26.001 76.804 25.373 77.402 Z M 29.555 77.107 C 29.52 77.353 30.003 78.007 30.634 78.094 C 31.263 78.181 31.802 77.67 31.835 77.426 C 31.87 77.18 31.385 76.91 30.756 76.823 C 30.127 76.734 29.588 76.861 29.555 77.107 Z M 30.779 78.334 L 30.601 78.322 C 30.21 78.268 29.815 78.022 29.545 77.663 C 29.45 77.538 29.295 77.292 29.325 77.076 C 29.37 76.755 29.759 76.565 30.367 76.565 C 30.505 76.565 30.646 76.574 30.789 76.595 C 31.12 76.64 31.429 76.736 31.657 76.863 C 32.053 77.085 32.083 77.33 32.065 77.458 C 32.015 77.81 31.453 78.334 30.779 78.334 Z M 29.783 77.149 C 29.804 77.299 30.177 77.797 30.665 77.865 L 30.777 77.874 C 31.227 77.874 31.563 77.519 31.603 77.404 C 31.561 77.325 31.272 77.128 30.725 77.053 C 30.603 77.036 30.482 77.027 30.367 77.027 C 30.015 77.025 29.827 77.105 29.783 77.149 Z M 48.72 76.607 C 48.755 76.853 48.272 77.506 47.641 77.594 C 47.012 77.682 46.474 77.172 46.439 76.926 C 46.406 76.68 46.888 76.41 47.518 76.323 C 48.149 76.236 48.686 76.363 48.72 76.607 Z M 47.497 77.719 C 46.89 77.719 46.367 77.248 46.325 76.942 C 46.275 76.574 46.88 76.295 47.502 76.209 C 47.64 76.19 47.776 76.18 47.906 76.18 C 48.445 76.18 48.801 76.338 48.836 76.591 C 48.858 76.757 48.733 77.011 48.515 77.24 C 48.372 77.39 48.07 77.653 47.659 77.709 L 47.497 77.719 Z M 47.906 76.41 C 47.786 76.41 47.661 76.42 47.533 76.438 C 46.908 76.523 46.535 76.776 46.552 76.91 C 46.573 77.058 46.974 77.489 47.497 77.489 L 47.626 77.48 C 47.967 77.431 48.224 77.208 48.346 77.079 C 48.537 76.877 48.614 76.687 48.605 76.623 C 48.595 76.537 48.363 76.41 47.906 76.41 Z M 49.629 90.674 C 49.496 90.674 49.362 90.635 49.243 90.557 C 48.924 90.343 48.841 89.914 49.053 89.595 C 50.528 87.391 50.258 85.145 49.996 82.971 C 49.885 82.045 49.77 81.088 49.801 80.168 C 49.831 79.223 49.951 78.444 50.068 77.689 C 50.204 76.795 50.335 75.95 50.281 74.949 C 50.26 74.567 50.552 74.24 50.936 74.219 C 51.319 74.198 51.644 74.493 51.665 74.874 C 51.726 76.019 51.579 76.975 51.436 77.899 C 51.326 78.613 51.213 79.351 51.185 80.212 C 51.159 81.026 51.264 81.89 51.373 82.805 C 51.651 85.117 51.966 87.737 50.204 90.365 C 50.071 90.566 49.852 90.674 49.629 90.674 Z" fill="#fff" style="" transform="matrix(1, 0, 0, 1, 0, 8.881784197001252e-16)"/>
	<path fill="#fff" d="M 2.835 113.669 C 3.424 113.569 4.195 113.486 5.176 113.486 C 6.382 113.486 7.266 113.766 7.826 114.27 C 8.345 114.72 8.653 115.407 8.653 116.249 C 8.653 117.103 8.401 117.776 7.923 118.267 C 7.278 118.954 6.227 119.304 5.037 119.304 C 4.672 119.304 4.336 119.29 4.055 119.221 L 4.055 123.005 L 2.835 123.005 L 2.835 113.669 Z M 4.055 118.224 C 4.322 118.295 4.658 118.323 5.064 118.323 C 6.536 118.323 7.433 117.606 7.433 116.304 C 7.433 115.056 6.551 114.453 5.204 114.453 C 4.672 114.453 4.266 114.495 4.055 114.551 L 4.055 118.224 Z M 16.041 119.555 C 16.041 122.065 14.303 123.16 12.663 123.16 C 10.825 123.16 9.41 121.814 9.41 119.669 C 9.41 117.397 10.895 116.066 12.774 116.066 C 14.723 116.064 16.041 117.481 16.041 119.555 Z M 10.658 119.627 C 10.658 121.112 11.514 122.233 12.718 122.233 C 13.897 122.233 14.779 121.126 14.779 119.597 C 14.779 118.448 14.205 116.991 12.746 116.991 C 11.287 116.991 10.658 118.337 10.658 119.627 Z M 17.428 121.743 C 17.793 121.982 18.438 122.233 19.055 122.233 C 19.952 122.233 20.372 121.785 20.372 121.223 C 20.372 120.636 20.022 120.313 19.11 119.977 C 17.892 119.541 17.317 118.868 17.317 118.056 C 17.317 116.963 18.2 116.066 19.658 116.066 C 20.344 116.066 20.948 116.261 21.326 116.486 L 21.017 117.383 C 20.752 117.214 20.261 116.991 19.63 116.991 C 18.901 116.991 18.495 117.411 18.495 117.915 C 18.495 118.476 18.901 118.729 19.785 119.065 C 20.963 119.513 21.565 120.103 21.565 121.112 C 21.565 122.304 20.641 123.144 19.028 123.144 C 18.284 123.144 17.597 122.963 17.121 122.682 L 17.428 121.743 Z M 24.634 114.27 L 24.634 116.219 L 26.4 116.219 L 26.4 117.158 L 24.634 117.158 L 24.634 120.817 C 24.634 121.657 24.873 122.135 25.56 122.135 C 25.882 122.135 26.121 122.093 26.275 122.051 L 26.33 122.975 C 26.093 123.075 25.715 123.144 25.237 123.144 C 24.664 123.144 24.2 122.961 23.906 122.625 C 23.555 122.261 23.43 121.657 23.43 120.859 L 23.43 117.158 L 22.379 117.158 L 22.379 116.219 L 23.43 116.219 L 23.43 114.593 L 24.634 114.27 Z M 33.55 116.219 C 33.522 116.711 33.494 117.256 33.494 118.084 L 33.494 122.023 C 33.494 123.58 33.186 124.532 32.527 125.123 C 31.868 125.738 30.915 125.935 30.061 125.935 C 29.247 125.935 28.351 125.738 27.803 125.374 L 28.112 124.434 C 28.56 124.715 29.26 124.968 30.102 124.968 C 31.363 124.968 32.288 124.309 32.288 122.599 L 32.288 121.842 L 32.26 121.842 C 31.882 122.473 31.153 122.977 30.102 122.977 C 28.42 122.977 27.214 121.548 27.214 119.669 C 27.214 117.369 28.713 116.066 30.27 116.066 C 31.448 116.066 32.093 116.683 32.388 117.242 L 32.415 117.242 L 32.471 116.219 L 33.55 116.219 Z M 32.274 118.896 C 32.274 118.687 32.26 118.504 32.205 118.337 C 31.981 117.622 31.378 117.033 30.481 117.033 C 29.302 117.033 28.462 118.028 28.462 119.597 C 28.462 120.931 29.135 122.037 30.467 122.037 C 31.223 122.037 31.91 121.56 32.177 120.775 C 32.246 120.565 32.276 120.327 32.276 120.117 L 32.276 118.896 L 32.274 118.896 Z M 35.457 118.337 C 35.457 117.537 35.443 116.85 35.401 116.219 L 36.48 116.219 L 36.522 117.551 L 36.578 117.551 C 36.887 116.641 37.629 116.066 38.457 116.066 C 38.597 116.066 38.694 116.079 38.807 116.107 L 38.807 117.27 C 38.682 117.242 38.555 117.228 38.387 117.228 C 37.518 117.228 36.9 117.887 36.733 118.813 C 36.705 118.982 36.677 119.177 36.677 119.388 L 36.677 123.005 L 35.457 123.005 L 35.457 118.337 Z M 40.589 119.836 C 40.617 121.504 41.682 122.191 42.914 122.191 C 43.798 122.191 44.331 122.037 44.793 121.84 L 45.004 122.724 C 44.568 122.921 43.826 123.144 42.747 123.144 C 40.659 123.144 39.411 121.771 39.411 119.724 C 39.411 117.678 40.615 116.064 42.592 116.064 C 44.807 116.064 45.396 118.013 45.396 119.261 C 45.396 119.513 45.368 119.71 45.355 119.836 L 40.589 119.836 Z M 44.206 118.954 C 44.218 118.168 43.882 116.948 42.494 116.948 C 41.248 116.948 40.7 118.098 40.601 118.954 L 44.206 118.954 Z" style="" transform="matrix(1, 0, 0, 1, 0, 8.881784197001252e-16)"/>
	<path d="M 46.798 121.518 C 47.345 121.854 48.143 122.135 48.985 122.135 C 50.233 122.135 50.962 121.476 50.962 120.523 C 50.962 119.641 50.457 119.135 49.181 118.645 C 47.64 118.098 46.686 117.3 46.686 115.966 C 46.686 114.495 47.906 113.402 49.742 113.402 C 50.709 113.402 51.41 113.625 51.83 113.864 L 51.494 114.859 C 51.185 114.692 50.556 114.411 49.7 114.411 C 48.41 114.411 47.92 115.182 47.92 115.827 C 47.92 116.711 48.494 117.145 49.798 117.65 C 51.396 118.267 52.21 119.038 52.21 120.425 C 52.21 121.882 51.129 123.144 48.902 123.144 C 47.99 123.144 46.995 122.878 46.489 122.541 L 46.798 121.518 Z M 61.672 124.392 C 60.396 124.056 59.149 123.678 58.055 123.299 C 57.86 123.228 57.663 123.158 57.481 123.158 C 55.238 123.075 53.317 121.42 53.317 118.379 C 53.317 115.351 55.168 113.402 57.718 113.402 C 60.284 113.402 61.952 115.393 61.952 118.182 C 61.952 120.608 60.832 122.163 59.261 122.71 L 59.261 122.766 C 60.201 123.005 61.224 123.228 62.024 123.369 L 61.672 124.392 Z M 60.662 118.237 C 60.662 116.346 59.683 114.396 57.677 114.396 C 55.616 114.396 54.607 116.303 54.621 118.351 C 54.607 120.355 55.714 122.163 57.621 122.163 C 59.57 122.163 60.662 120.397 60.662 118.237 Z M 63.537 113.555 L 64.757 113.555 L 64.757 121.982 L 68.794 121.982 L 68.794 123.005 L 63.537 123.005 L 63.537 113.555 Z" fill="#336791" style="" transform="matrix(1, 0, 0, 1, 0, 8.881784197001252e-16)"/>
</svg>