<?xml version="1.0" encoding="UTF-8"?>
<svg id="Layer_3" data-name="Layer 3" xmlns="http://www.w3.org/2000/svg" version="1.1" viewBox="0 0 857.5 217.2">
  <defs>
    <style>
      .cls-1 {
        fill: #79ac91;
      }

      .cls-1, .cls-2, .cls-3, .cls-4, .cls-5 {
        stroke-width: 0px;
      }

      .cls-2 {
        fill: #72f5cf;
      }

      .cls-3 {
        fill: #141b1f;
      }

      .cls-4 {
        fill: #4ff8d2;
      }

      .cls-5 {
        fill: #a8f7d9;
      }
    </style>
  </defs>
  <g>
    <path class="cls-2" d="M118,87.2c.7,0,1.3,0,1.9.3.4.1.8.3,1.2.5.2.1.4.2.6.3.4.3.7.5,1.1.9l5.2,5.2c2.7,2.7,2.7,7,0,9.7l-95.1,95.1c-1.3,1.3-3.1,2-4.8,2s-3.5-.7-4.8-2l-5.2-5.2c-2.7-2.7-2.7-7,0-9.7l85.1-85.1,10-10c.3-.3.7-.6,1.1-.9.2-.1.4-.2.6-.3.4-.2.8-.4,1.2-.5.6-.2,1.3-.3,1.9-.3M118,71.2c-2.2,0-4.4.3-6.5.9-1.4.4-2.8,1-4.1,1.7-.7.4-1.3.7-2,1.2-1.3.8-2.5,1.8-3.6,2.9l-10,10L6.7,173c-8.9,8.9-8.9,23.4,0,32.3l5.2,5.2c4.3,4.3,10.1,6.7,16.2,6.7s11.8-2.4,16.2-6.7l95.1-95.1c4.3-4.3,6.7-10.1,6.7-16.2s-2.4-11.8-6.7-16.2l-5.2-5.2c-1.1-1.1-2.3-2.1-3.6-2.9-.6-.4-1.3-.8-1.9-1.2-1.3-.7-2.7-1.3-4.1-1.7-2.1-.6-4.3-.9-6.5-.9h0Z"/>
    <g>
      <path class="cls-2" d="M119.4,16c.3,0,.6,0,.9,0l66.5,3.8c5.8.3,10.3,4.9,10.7,10.7l3.8,66.5c.3,4.4-1.4,8.7-4.5,11.8l-79.7,79.7c-3,3-6.9,4.5-11,4.5s-3.3-.3-4.9-.8l-49.9-16.5c-4.7-1.5-8.3-5.2-9.8-9.8l-16.5-49.9c-1.8-5.6-.4-11.7,3.8-15.8L108.4,20.5c2.9-2.9,6.9-4.5,11-4.5M119.4,0c-8.4,0-16.3,3.3-22.3,9.2L17.4,88.9c-8.5,8.5-11.4,20.8-7.6,32.1l16.5,49.9c3.1,9.4,10.6,16.9,20,20l49.9,16.5c3.2,1.1,6.5,1.6,9.9,1.6,8.4,0,16.3-3.3,22.3-9.2l79.7-79.7c6.3-6.3,9.7-15.1,9.2-24.1l-3.8-66.5c-.8-13.9-11.9-24.9-25.7-25.7L121.2,0c-.6,0-1.2,0-1.8,0h0Z"/>
      <path class="cls-5" d="M24.9,116.1l16.5,49.9c1.5,4.7,5.2,8.3,9.8,9.8l49.9,16.5c5.6,1.8,11.7.4,15.8-3.8l79.7-79.7c3.1-3.1,4.8-7.4,4.5-11.8l-3.8-66.5c-.3-5.8-4.9-10.3-10.7-10.7l-66.5-3.8c-4.4-.3-8.7,1.4-11.8,4.5L28.7,100.3c-4.1,4.1-5.6,10.3-3.8,15.8Z"/>
      <path class="cls-3" d="M119.4,16c.3,0,.6,0,.9,0l66.5,3.8c5.8.3,10.3,4.9,10.7,10.7l3.8,66.5c.3,4.4-1.4,8.7-4.5,11.8l-79.7,79.7c-3,3-6.9,4.5-11,4.5s-3.3-.3-4.9-.8l-49.9-16.5c-4.7-1.5-8.3-5.2-9.8-9.8l-16.5-49.9c-1.8-5.6-.4-11.7,3.8-15.8L108.4,20.5c2.9-2.9,6.9-4.5,11-4.5M119.4,6c-6.8,0-13.2,2.7-18,7.5L21.6,93.2c-6.8,6.8-9.2,16.8-6.2,26l16.5,49.9c2.5,7.6,8.6,13.7,16.2,16.2l49.9,16.5c2.6.9,5.3,1.3,8,1.3,6.8,0,13.2-2.7,18-7.5l79.7-79.7c5.1-5.1,7.8-12.2,7.4-19.5l-3.8-66.5c-.6-10.8-9.3-19.5-20.1-20.1l-66.5-3.8c-.5,0-1,0-1.5,0h0Z"/>
      <path class="cls-3" d="M136.7,173.7l6.9-6.9c-.2-.1-.4-.2-.6-.3l-27.6-9.1-6.9,6.9,28.3,9.3Z"/>
      <path class="cls-3" d="M166.5,143.9l6.9-6.9c-.2-.1-.4-.2-.6-.3l-27.6-9.1-6.9,6.9,28.3,9.3Z"/>
      <path class="cls-3" d="M43.5,80.5l6.9-6.9c.1.2.2.4.3.6l9.1,27.6-6.9,6.9-9.3-28.3Z"/>
      <path class="cls-3" d="M73.3,50.7l6.9-6.9c.1.2.2.4.3.6l9.1,27.6-6.9,6.9-9.3-28.3Z"/>
    </g>
    <path class="cls-1" d="M130.6,101.5l-97.7,97.7c-2.7,2.7-7,2.7-9.7,0l-5.2-5.2c-2.7-2.7-2.7-7,0-9.7l97.7-97.7c1.5-1.5,3.4-2.4,5.5-2.6l7.9-.8c2.8-.3,5.1,2.1,4.9,4.9l-.8,7.9c-.2,2.1-1.1,4-2.6,5.5Z"/>
    <path class="cls-3" d="M129.5,83.3c2.6,0,4.7,2.2,4.4,4.9l-.8,7.9c-.2,2.1-1.1,4-2.6,5.5l-97.7,97.7c-1.3,1.3-3.1,2-4.8,2s-3.5-.7-4.8-2l-5.2-5.2c-2.7-2.7-2.7-7,0-9.7l97.7-97.7c1.5-1.5,3.4-2.4,5.5-2.6l7.9-.8c.1,0,.3,0,.4,0M129.5,73.3h0c-.5,0-.9,0-1.4,0l-7.9.8c-4.4.4-8.5,2.4-11.5,5.5L10.9,177.3c-6.6,6.6-6.6,17.3,0,23.8l5.2,5.2c3.2,3.2,7.4,4.9,11.9,4.9s8.7-1.8,11.9-4.9l97.7-97.7c3.1-3.1,5-7.2,5.5-11.5l.8-7.9c.4-4-.9-8.1-3.7-11.1-2.7-3-6.6-4.7-10.7-4.7h0Z"/>
  </g>
  <g>
    <rect class="cls-4" x="270.2" y="33.5" width="20.9" height="143.2"/>
    <rect class="cls-4" x="319.2" y="69.3" width="20.9" height="107.4"/>
    <path class="cls-4" d="M329.8,27.7c-3.6,0-6.7,1.2-9.3,3.7-2.6,2.4-3.9,5.4-3.9,8.8s1.3,6.3,3.9,8.8c2.6,2.4,5.7,3.7,9.3,3.7s6.7-1.2,9.3-3.7c2.6-2.4,3.9-5.4,3.9-8.8s-1.3-6.4-3.9-8.8c-2.6-2.4-5.7-3.7-9.3-3.7Z"/>
    <path class="cls-4" d="M446.1,74.4c-6.8-4.4-14.5-6.6-23.2-6.6s-12,1.1-16.1,3.3c-4.1,2.2-7.2,4.8-9.5,7.7-2.3,2.9-4,5.5-5.2,7.8h-1.3v-53.2h-20.9v143.2h20.4v-16.7h1.7c1.3,2.3,3.1,4.9,5.4,7.8,2.3,2.9,5.6,5.5,9.7,7.7,4.1,2.2,9.4,3.3,16,3.3s16.4-2.2,23.1-6.7c6.8-4.4,12.1-10.8,15.9-19.1,3.9-8.3,5.8-18.2,5.8-29.8s-1.9-21.5-5.8-29.8c-3.9-8.2-9.2-14.6-16-18.9ZM443.6,142.3c-2.2,5.7-5.3,10.3-9.5,13.6-4.2,3.3-9.4,5-15.7,5s-11.1-1.6-15.2-4.8c-4.1-3.2-7.3-7.6-9.5-13.3-2.2-5.7-3.3-12.3-3.3-19.9s1.1-14,3.2-19.6c2.1-5.6,5.3-10,9.5-13.1,4.2-3.1,9.3-4.7,15.3-4.7s11.5,1.6,15.8,4.9c4.2,3.3,7.4,7.7,9.5,13.4,2.1,5.6,3.2,12,3.2,19.1s-1.1,13.6-3.3,19.4Z"/>
    <path class="cls-4" d="M580.2,108.9c-4.1-3.1-8.6-5.6-13.4-7.5-4.8-1.9-9.5-3.4-14.1-4.5l-14-3.6c-2.8-.7-5.7-1.6-8.7-2.7-3-1.1-5.9-2.5-8.5-4.1-2.6-1.7-4.8-3.7-6.4-6.2-1.6-2.5-2.4-5.4-2.4-8.8s1.2-7.7,3.5-10.9c2.4-3.2,5.7-5.7,10-7.6,4.3-1.8,9.4-2.8,15.2-2.8s15,1.8,20.4,5.5c5.4,3.7,8.5,8.8,9.2,15.4h20.8c-.2-7.7-2.4-14.5-6.7-20.4-4.3-5.9-10.1-10.6-17.6-14-7.4-3.4-16-5.1-25.7-5.1s-18.2,1.7-25.9,5.1c-7.6,3.4-13.7,8.2-18.2,14.4-4.5,6.2-6.7,13.4-6.7,21.6s3.3,18,10,24c6.7,6.1,15.8,10.7,27.2,13.8l16.9,4.6c5.1,1.4,9.7,2.9,13.8,4.7,4.1,1.8,7.3,4,9.7,6.7,2.4,2.7,3.6,6.2,3.6,10.4s-1.4,8.7-4.1,12.2c-2.8,3.5-6.5,6.2-11.3,8.1-4.8,1.9-10.2,2.9-16.3,2.9s-10.6-.8-15.3-2.5c-4.6-1.7-8.4-4.2-11.4-7.6-3-3.4-4.6-7.7-5.1-12.9h-21.7c.5,8.6,2.9,16.1,7.3,22.3,4.4,6.3,10.6,11.1,18.4,14.5,7.8,3.4,17.1,5.1,27.8,5.1s20.7-1.8,28.6-5.5c7.9-3.6,13.9-8.6,18.1-14.9,4.2-6.3,6.3-13.5,6.3-21.6s-1.3-12-3.8-16.6c-2.5-4.6-5.9-8.5-10-11.6Z"/>
    <path class="cls-4" d="M735.8,144.4c5.6-11,8.4-24.1,8.4-39.4s-2.8-28.4-8.4-39.4c-5.6-11-13.2-19.4-23-25.3-9.7-5.9-20.8-8.8-33.1-8.8s-23.5,2.9-33.2,8.8c-9.7,5.9-17.4,14.3-23,25.3-5.6,11-8.4,24.1-8.4,39.4s2.8,28.4,8.4,39.4c5.6,11,13.2,19.4,23,25.3,9.7,5.9,20.8,8.8,33.2,8.8s17.8-1.7,25.6-5l12.2,15.9h22.1l-19.3-25.1c6.3-5.3,11.4-11.9,15.5-19.9ZM717.1,134.5c-2.6,5.5-5.8,10-9.7,13.7l-13.8-18h-21.3l20.3,26.7c-4.1,1.3-8.4,2-13.1,2-8.2,0-15.6-2.1-22.1-6.2-6.5-4.1-11.6-10.2-15.3-18.2-3.8-8-5.6-17.8-5.6-29.5s1.9-21.5,5.6-29.5c3.8-8,8.9-14.1,15.3-18.2,6.5-4.1,13.8-6.2,22.1-6.2s15.6,2.1,22.1,6.2c6.5,4.1,11.6,10.2,15.4,18.2,3.8,8,5.6,17.8,5.6,29.5s-1.9,21.5-5.6,29.5Z"/>
    <polygon class="cls-4" points="792.7 158 792.7 33.5 771.1 33.5 771.1 176.6 857.5 176.6 857.5 158 792.7 158"/>
  </g>
</svg>